<svg width="25" height="15" viewBox="0 0 25 15" fill="none" xmlns="http://www.w3.org/2000/svg">
<path fill-rule="evenodd" clip-rule="evenodd" d="M24.4239 0.648895C24.7928 1.03116 25 1.54935 25 2.08962C25 2.6299 24.7928 3.14808 24.4239 3.53035L13.9175 14.4038C13.5482 14.7856 13.0475 15 12.5254 15C12.0034 15 11.5027 14.7856 11.1333 14.4038L0.626988 3.53035C0.433443 3.3437 0.278206 3.11862 0.170537 2.86853C0.0628675 2.61845 0.00497346 2.34848 0.000306582 2.07473C-0.0043603 1.80098 0.0442957 1.52907 0.143373 1.27521C0.242451 1.02135 0.38992 0.79074 0.576982 0.597142C0.764044 0.403545 0.986868 0.250923 1.23216 0.148384C1.47745 0.0458445 1.74019 -0.00451264 2.00469 0.000317286C2.2692 0.00514721 2.53005 0.0650652 2.7717 0.176496C3.01334 0.287926 3.23082 0.448588 3.41117 0.648895L12.5254 10.0816L21.6397 0.648895C22.0091 0.267101 22.5098 0.0526505 23.0318 0.0526505C23.5538 0.0526505 24.0545 0.267101 24.4239 0.648895Z" fill="black"/>
</svg>
