<svg width="50" height="50" viewBox="0 0 50 50" fill="none" xmlns="http://www.w3.org/2000/svg">
<path d="M15.1085 50C13.9074 50 12.895 49.6114 12.0715 48.8343C11.2479 48.0572 10.8371 47.1028 10.839 45.9712C10.8409 44.8396 11.2517 43.8843 12.0715 43.1054C12.895 42.3301 13.9074 41.9424 15.1085 41.9424C16.3097 41.9424 17.3211 42.3301 18.1428 43.1054C18.9644 43.8807 19.3762 44.836 19.3781 45.9712C19.38 47.1064 18.9682 48.0608 18.1428 48.8343C17.3173 49.6079 16.3059 49.9964 15.1085 50ZM41.8189 50C40.6196 50 39.6082 49.6114 38.7846 48.8343C37.9611 48.0572 37.5493 47.1028 37.5493 45.9712C37.5493 44.8396 37.9611 43.8843 38.7846 43.1054C39.6082 42.3301 40.6196 41.9424 41.8189 41.9424C43.0181 41.9424 44.0305 42.3301 44.8559 43.1054C45.6776 43.8825 46.0884 44.8378 46.0884 45.9712C46.0884 47.1028 45.6776 48.0572 44.8559 48.8343C44.0324 49.6114 43.02 50 41.8189 50ZM11.0468 8.05758L18.6437 23.1414H37.5294C37.8577 23.1414 38.1489 23.0635 38.4032 22.9077C38.6594 22.7519 38.8786 22.5371 39.0607 22.2631L46.5068 9.50527C46.725 9.12566 46.7431 8.78993 46.5609 8.49807C46.3768 8.20441 46.0666 8.05758 45.6301 8.05758H11.0468ZM9.65488 5.37172H46.7146C47.9499 5.37172 48.8797 5.84802 49.5041 6.8006C50.1303 7.7514 50.1635 8.73174 49.6037 9.74162L41.4688 23.7296C41.057 24.3831 40.5219 24.8961 39.8634 25.2686C39.2049 25.641 38.481 25.8272 37.6916 25.8272H17.3629L13.9045 31.8167C13.6123 32.2303 13.6028 32.678 13.876 33.1596C14.1493 33.6413 14.5601 33.883 15.1085 33.8848H46.0884V36.5707H15.1085C13.4481 36.5707 12.209 35.91 11.3912 34.5885C10.5733 33.2671 10.5534 31.9403 11.3314 30.6081L15.6123 23.41L5.14624 2.68586H0V0H6.95083L9.65488 5.37172Z" fill="black"/>
</svg>
