<svg width="30" height="30" viewBox="0 0 30 30" fill="none" xmlns="http://www.w3.org/2000/svg">
<path d="M8.7 0.177246H21.3C26.1 0.177246 30 4.00382 30 8.71346V21.0762C30 23.3402 29.0834 25.5114 27.4518 27.1123C25.8203 28.7131 23.6074 29.6125 21.3 29.6125H8.7C3.9 29.6125 0 25.7859 0 21.0762V8.71346C0 6.44951 0.916605 4.27829 2.54817 2.67744C4.17974 1.07659 6.39262 0.177246 8.7 0.177246ZM8.4 3.12077C6.96783 3.12077 5.59432 3.67898 4.58162 4.67261C3.56893 5.66625 3 7.0139 3 8.4191V21.3706C3 24.2994 5.415 26.6689 8.4 26.6689H21.6C23.0322 26.6689 24.4057 26.1107 25.4184 25.1171C26.4311 24.1235 27 22.7758 27 21.3706V8.4191C27 5.4903 24.585 3.12077 21.6 3.12077H8.4ZM22.875 5.32841C23.3723 5.32841 23.8492 5.52223 24.2008 5.86724C24.5525 6.21225 24.75 6.68019 24.75 7.16811C24.75 7.65603 24.5525 8.12396 24.2008 8.46897C23.8492 8.81398 23.3723 9.00781 22.875 9.00781C22.3777 9.00781 21.9008 8.81398 21.5492 8.46897C21.1975 8.12396 21 7.65603 21 7.16811C21 6.68019 21.1975 6.21225 21.5492 5.86724C21.9008 5.52223 22.3777 5.32841 22.875 5.32841ZM15 7.53605C16.9891 7.53605 18.8968 8.31135 20.3033 9.69139C21.7098 11.0714 22.5 12.9432 22.5 14.8949C22.5 16.8465 21.7098 18.7183 20.3033 20.0983C18.8968 21.4784 16.9891 22.2537 15 22.2537C13.0109 22.2537 11.1032 21.4784 9.6967 20.0983C8.29018 18.7183 7.5 16.8465 7.5 14.8949C7.5 12.9432 8.29018 11.0714 9.6967 9.69139C11.1032 8.31135 13.0109 7.53605 15 7.53605ZM15 10.4796C13.8065 10.4796 12.6619 10.9447 11.818 11.7728C10.9741 12.6008 10.5 13.7238 10.5 14.8949C10.5 16.0659 10.9741 17.1889 11.818 18.0169C12.6619 18.845 13.8065 19.3101 15 19.3101C16.1935 19.3101 17.3381 18.845 18.182 18.0169C19.0259 17.1889 19.5 16.0659 19.5 14.8949C19.5 13.7238 19.0259 12.6008 18.182 11.7728C17.3381 10.9447 16.1935 10.4796 15 10.4796Z" fill="white"/>
</svg>
