<svg width="100" height="100" viewBox="0 0 100 100" fill="none" xmlns="http://www.w3.org/2000/svg">
<path d="M14.4334 70.1167C8.33337 65.2375 8.33337 61.5458 8.33337 45.8333C8.33337 30.1208 8.33337 22.2625 14.4334 17.3833C20.5417 12.5 30.3584 12.5 50 12.5C69.6417 12.5 79.4625 12.5 85.5625 17.3833C91.6625 22.2667 91.6667 30.1208 91.6667 45.8333C91.6667 61.5458 91.6667 65.2375 85.5625 70.1167C79.4667 75 69.6417 75 50 75C39.5417 75 34.1667 82.2417 25 87.5V74.1167C20.4417 73.4375 17.0875 72.2417 14.4334 70.1167Z" fill="#50170D" stroke="#50170D" stroke-width="4" stroke-linecap="round" stroke-linejoin="round"/>
<path d="M35.32 59.04C34.8933 59.04 34.5467 58.96 34.28 58.8C34.0133 58.64 33.88 58.4133 33.88 58.12C33.88 57.88 33.9733 57.6933 34.16 57.56C34.3467 57.4 34.5867 57.2933 34.88 57.24C35.7067 57.16 36.3067 57.04 36.68 56.88C37.0533 56.72 37.32 56.4267 37.48 56C37.6667 55.5733 37.8 54.9067 37.88 54L39.28 35.28L39.32 34.6C39.32 33.8267 39.1333 33.32 38.76 33.08C38.4133 32.8133 37.7067 32.6267 36.64 32.52C36.1067 32.3867 35.84 32.1067 35.84 31.68C35.84 31.36 35.9467 31.1467 36.16 31.04C36.4 30.9333 36.7333 30.88 37.16 30.88L39.04 30.92C40 30.9733 40.68 31 41.08 31C41.72 31 42.1333 31.1067 42.32 31.32C42.5333 31.5067 42.6933 31.8533 42.8 32.36C42.9067 32.8933 43.0267 33.2933 43.16 33.56L51.04 53.12C51.12 53.36 51.24 53.48 51.4 53.48C51.5333 53.48 51.6533 53.36 51.76 53.12L59.24 33.56C59.4 33.1333 59.48 32.68 59.48 32.2C59.5067 31.7467 59.5867 31.44 59.72 31.28C59.88 31.0933 60.24 31 60.8 31C61.6267 31 62.2667 31 62.72 31C63.1733 30.9733 63.5333 30.96 63.8 30.96C64.0933 30.9333 64.56 30.92 65.2 30.92C66.1333 30.92 66.6 31.2133 66.6 31.8C66.6 31.9867 66.52 32.1733 66.36 32.36C66.2 32.52 66 32.6267 65.76 32.68C64.9067 32.76 64.3067 32.8667 63.96 33C63.64 33.1333 63.4133 33.3733 63.28 33.72C63.1733 34.0667 63.1467 34.6667 63.2 35.52L64.4 54.36C64.4533 55.16 64.5467 55.7467 64.68 56.12C64.84 56.4667 65.1067 56.72 65.48 56.88C65.88 57.04 66.4933 57.1467 67.32 57.2C68.0133 57.36 68.36 57.6533 68.36 58.08C68.36 58.64 67.9467 58.9467 67.12 59C63.28 59 60.4267 59.0133 58.56 59.04C57.6 59.04 57.12 58.7333 57.12 58.12C57.12 57.9333 57.2 57.76 57.36 57.6C57.5467 57.44 57.76 57.3333 58 57.28C58.8533 57.2 59.4533 57.0933 59.8 56.96C60.1733 56.8267 60.4267 56.5733 60.56 56.2C60.6933 55.8267 60.7333 55.24 60.68 54.44L59.92 38.08C59.92 37.9733 59.8933 37.88 59.84 37.8C59.7867 37.72 59.72 37.68 59.64 37.68C59.5333 37.68 59.44 37.7867 59.36 38C59.28 38.2133 59.2267 38.3333 59.2 38.36L51.44 57.96C51.1467 58.6267 50.8267 58.96 50.48 58.96C50.2667 58.96 50.0667 58.8667 49.88 58.68C49.72 58.4933 49.5867 58.2667 49.48 58L41.36 38.36C41.3333 38.3067 41.2667 38.1867 41.16 38C41.08 37.7867 40.9867 37.68 40.88 37.68C40.8 37.68 40.7333 37.72 40.68 37.8C40.6267 37.8533 40.6 37.9467 40.6 38.08L39.68 54.72C39.6533 55.4933 39.7067 56.0533 39.84 56.4C40 56.72 40.2667 56.9333 40.64 57.04C41.0133 57.1467 41.6533 57.2267 42.56 57.28C43.1733 57.4133 43.48 57.7067 43.48 58.16C43.48 58.7467 43 59.04 42.04 59.04L38.64 59L35.32 59.04Z" fill="white"/>
</svg>
