<?xml version="1.0" encoding="UTF-8"?>
<svg id="Layer_1" data-name="Layer 1" xmlns="http://www.w3.org/2000/svg" xmlns:xlink="http://www.w3.org/1999/xlink" viewBox="0 0 1809.5 252.92">
  <defs>
    <style>
      .cls-1 {
        opacity: .68;
      }

      .cls-2 {
        fill: url(#linear-gradient);
      }

      .cls-2, .cls-3, .cls-4, .cls-5, .cls-6, .cls-7, .cls-8 {
        stroke-width: 0px;
      }

      .cls-3 {
        fill: url(#linear-gradient-3);
      }

      .cls-3, .cls-5, .cls-6, .cls-8 {
        fill-rule: evenodd;
      }

      .cls-4 {
        fill: #50170d;
      }

      .cls-5 {
        fill: url(#linear-gradient-2);
      }

      .cls-6 {
        fill: url(#linear-gradient-5);
      }

      .cls-7 {
        fill: url(#linear-gradient-4);
      }

      .cls-8 {
        fill: url(#linear-gradient-6);
      }
    </style>
    <linearGradient id="linear-gradient" x1="1357.41" y1="278.38" x2="1357.41" y2="61.03" gradientUnits="userSpaceOnUse">
      <stop offset="0" stop-color="#efdcbc"/>
      <stop offset=".2" stop-color="#eedab8"/>
      <stop offset=".39" stop-color="#ebd4ac"/>
      <stop offset=".57" stop-color="#e7ca99"/>
      <stop offset=".75" stop-color="#e1bc7e"/>
      <stop offset=".93" stop-color="#daaa5b"/>
      <stop offset="1" stop-color="#d7a34d"/>
    </linearGradient>
    <linearGradient id="linear-gradient-2" x1="1357.41" y1="292.51" x2="1357.41" y2="126.31" gradientUnits="userSpaceOnUse">
      <stop offset="0" stop-color="#ebd2a9"/>
      <stop offset=".19" stop-color="#eacfa5"/>
      <stop offset=".36" stop-color="#e7c999"/>
      <stop offset=".54" stop-color="#e2bf86"/>
      <stop offset=".71" stop-color="#dab06b"/>
      <stop offset=".87" stop-color="#d29d48"/>
      <stop offset="1" stop-color="#ca8d2a"/>
    </linearGradient>
    <linearGradient id="linear-gradient-3" x1="1357.41" y1="224.57" x2="1357.41" y2="166.06" gradientUnits="userSpaceOnUse">
      <stop offset="0" stop-color="#caa77c"/>
      <stop offset=".23" stop-color="#c8a478"/>
      <stop offset=".44" stop-color="#c39c6c"/>
      <stop offset=".66" stop-color="#bb8e59"/>
      <stop offset=".86" stop-color="#af7c3e"/>
      <stop offset="1" stop-color="#a66d29"/>
    </linearGradient>
    <linearGradient id="linear-gradient-4" x1="-46.2" y1="278.38" x2="-46.2" y2="61.03" gradientTransform="translate(407.05) rotate(-180) scale(1 -1)" xlink:href="#linear-gradient"/>
    <linearGradient id="linear-gradient-5" x1="-46.2" y1="292.51" x2="-46.2" y2="126.31" gradientTransform="translate(407.05) rotate(-180) scale(1 -1)" xlink:href="#linear-gradient-2"/>
    <linearGradient id="linear-gradient-6" x1="-46.2" y1="224.57" x2="-46.2" y2="166.06" gradientTransform="translate(407.05) rotate(-180) scale(1 -1)" xlink:href="#linear-gradient-3"/>
  </defs>
  <g class="cls-1">
    <g>
      <polygon class="cls-2" points="1809.5 67.74 1803.95 68.06 1800.71 71.78 1796.29 73.95 1792.22 76.64 1786.21 76.58 1782.41 79.7 1777.55 81.2 1772.18 81.91 1767.86 84.69 1763.1 86.68 1758.18 88.33 1752.67 88.56 1748.04 90.84 1743.08 92.31 1737.43 92.3 1732.75 94.39 1728.06 96.36 1722.93 97.55 1717.8 98.51 1713.75 101.45 1708.51 102.12 1703.73 103.71 1698.93 105.27 1693.92 106.37 1689.23 108.16 1683.66 108.09 1680.05 112.04 1674.64 112.38 1669.67 113.65 1665.38 116.05 1659.82 117.17 1654.11 117.67 1648.39 118.71 1643.85 121.86 1638.25 123.7 1635.17 127.47 1630.53 130.21 1625.32 129.74 1620.57 131.35 1615.54 131.06 1610.57 130.65 1605.64 129.86 1600.65 130.43 1595.64 130.97 1590.73 129.63 1585.71 130.67 1580.69 129.1 1575.79 130.55 1570.85 130.32 1565.94 129.85 1561.06 129.18 1556.09 128.59 1551.41 130.59 1545.55 130.58 1540.44 133.39 1535.08 133.49 1529.75 133.24 1524.46 132.74 1519.14 133.27 1513.99 131.23 1508.91 130.91 1503.3 132.33 1498.11 131.49 1493.78 128.48 1489.1 126.66 1484.24 125.31 1479.67 123.36 1473.96 123.41 1469.28 121.59 1464.07 120.6 1460.06 117.75 1455.35 115.98 1451.11 113.1 1447.17 110.05 1441.48 109.17 1437.07 106.38 1431.46 106.36 1426.86 108.88 1420.82 108.17 1416.92 111.56 1411.98 113.36 1406.98 113.62 1405.3 117.35 1400.14 119.11 1395.11 118.01 1390.37 116.7 1385.27 117.55 1380.02 117.8 1374.9 118.22 1369.88 119.42 1366.17 122.43 1361.79 124.34 1358.55 127.24 1353.93 128.61 1349.87 130.84 1345.18 132.16 1339.63 132.29 1334.3 133.13 1328.65 133.64 1325.2 137.39 1321.05 140.01 1315.73 141.19 1310.7 142.54 1306.21 144.61 1302.43 148.13 1296.69 147.93 1292.08 150.14 1287.11 151.64 1281.61 151.14 1276.46 151.81 1271.27 152.14 1266.11 153.14 1260.88 153.99 1255.62 153.3 1250.35 153.78 1245.18 152.53 1239.95 152.3 1234.6 153.09 1229.55 151.31 1224.27 151.35 1219.24 149.53 1214.03 149.06 1209.17 150.34 1204.24 150.27 1199.9 151.53 1195.59 152.4 1190.95 153.53 1187.15 150.73 1182.13 151.96 1177.53 149.86 1172.63 149.38 1167.75 148.81 1162.62 149.85 1157.67 149.85 1152.9 148.57 1148.07 147.65 1143.2 146.82 1138.14 148.48 1133.31 146.74 1128.38 146.24 1123.1 146.3 1117.8 147.87 1112.51 148.17 1107.25 146.6 1101.95 146.88 1096.65 147.56 1091.37 147.39 1086.09 146.77 1080.78 147.6 1075.5 147.27 1070.22 147.1 1064.99 145.23 1059.72 144.81 1054.4 145.69 1049.07 146.61 1043.79 146.44 1038.56 145.14 1033.35 143.84 1028.07 144.25 1022.83 144.09 1017.58 144.61 1012.34 146.19 1007.11 144.12 1001.88 144.24 996.64 144.57 991.4 146.2 986.17 144.72 980.97 143.65 975.73 144.24 970.43 145.33 965.23 144.52 959.89 145.16 954.94 142.69 949.9 143.69 945.1 142.71 940.28 141.75 935.33 142.4 930.38 143.43 925.51 143.17 920.65 142.73 915.78 140.74 910.94 142.14 906.34 143.51 905.33 143.33 905.33 224.57 1809.5 224.57 1809.5 67.74"/>
      <polygon class="cls-5" points="1809.5 144.6 1809.02 144.55 1804.01 145.48 1799.2 142.9 1793.95 144.84 1788.88 144.41 1783.83 143.87 1779.44 140.46 1774.37 140.16 1769.19 140.19 1763.88 140.69 1759.05 139.35 1754.39 137.37 1749.33 136.93 1744.08 137.3 1739.57 134.48 1734.58 133.59 1729.21 134.9 1724.44 132.58 1719.1 134.68 1714.12 133.88 1709.09 133 1704.01 133 1698.99 133.95 1693.88 133.61 1688.85 134.53 1683.61 134.26 1678.78 136.07 1673.44 135.43 1668.34 135.96 1663.3 136.66 1658.2 137.01 1653.09 137.06 1647.73 139.38 1642.38 137.76 1637.22 136.38 1632.07 135.07 1626.33 135.19 1621.07 134.07 1615.74 133.22 1610.6 133.28 1605.32 131.68 1600.08 132.6 1595.48 135.12 1589.92 135.07 1585.3 137.64 1579.6 136.8 1574.45 138.02 1569.28 136.67 1564.06 136.34 1558.91 134.46 1553.87 132.23 1547.65 131.56 1542.96 135.05 1537.11 135.84 1532.72 138.78 1528.39 141.87 1523 143.7 1518.12 144.56 1513.06 143.4 1508.28 145.34 1503.42 145.54 1499.03 147.1 1493.48 147.99 1487.7 149.01 1483.21 152.07 1478.08 154.54 1472.53 153.44 1467.56 155.33 1462.57 152.96 1457.3 154.89 1452.3 155.08 1447.06 152.9 1442.45 155.2 1438.8 157.87 1432.67 159 1429.9 163.51 1424.24 165.27 1418.74 167.24 1412.69 167.37 1406.94 165.02 1401.04 167.11 1395.87 166.48 1390.67 165.47 1385.49 165.6 1380.42 167.52 1375.18 166.54 1370.11 168.06 1364.86 167.08 1359.65 166.63 1354.51 167.15 1349.37 167.81 1344.22 167.87 1339.07 167.98 1333.9 167.76 1328.78 169.28 1323.6 167.49 1318.45 167.93 1313.29 168.79 1308.16 167.38 1302.99 168.21 1297.82 168.37 1292.71 167.26 1287.48 168.63 1282.38 167.64 1277.19 168.02 1272.12 166.64 1266.94 166.83 1261.71 167.61 1256.74 165.25 1251.51 166.06 1246.27 166.79 1241.2 165.77 1236.01 165.91 1230.93 164.95 1225.85 164.01 1220.54 165.47 1215.63 162.84 1210.29 164.55 1205.33 162.43 1200.19 162.13 1194.94 162.88 1189.75 163.17 1184.77 161.12 1179.57 161.44 1174.48 160.5 1169.32 160.48 1164.12 160.82 1159.06 159.38 1153.73 161.68 1148.74 159.21 1143.48 160.73 1138.4 159.27 1133.18 160.41 1128.05 159.87 1122.9 159.87 1117.77 158.5 1112.59 159.89 1107.44 159.4 1102.31 158.57 1096.94 159.95 1091.71 159.52 1086.57 158.66 1082.17 155.43 1077.2 154.41 1071.9 154.21 1066.5 154.04 1061.36 153.12 1056.81 150.98 1051.98 149.43 1047.2 147.79 1043.67 144.11 1038.09 143.81 1033.15 142.07 1027.62 141.73 1023.22 138.56 1018.66 136.46 1013.45 134.86 1008.89 132.54 1003.96 130.96 1000.06 130.23 996.91 130.25 992.9 128.71 989.82 126.7 984.76 126.31 980.44 128.45 977.41 131.91 972.33 133.32 967.78 135.48 962.6 136.53 957.79 138.24 952.82 139.68 948.54 142.4 942.75 142.38 938 144.32 933.82 147.02 928.81 148.67 926.45 153.04 920.66 154.33 917.29 157.57 913.93 160.36 908.31 160.11 905.33 160.02 905.33 224.57 1809.5 224.57 1809.5 144.6"/>
      <polygon class="cls-3" points="1809.5 125.57 1802.67 125.15 1796.43 128.31 1789.9 130.66 1783.39 133.19 1776.08 134.12 1769.01 135.65 1761.94 136.44 1754.68 136.26 1748.18 140.94 1741.28 139.92 1734.88 143.44 1727.71 146.22 1721.82 150.33 1715.8 154.33 1708.81 157.05 1701.43 159.19 1693.6 159.87 1685.68 161.8 1678.39 164.73 1672.46 169.35 1664.82 171.8 1656.89 173.38 1648.63 173.64 1641.01 171.34 1633.91 168.08 1625.5 168.21 1618.29 168.42 1611.12 167.63 1603.93 166.29 1596.59 167.6 1589.51 166.01 1583.35 163.31 1576.45 161.26 1569.82 159.24 1561.4 157.63 1552.54 158.34 1543.7 157.73 1535.52 157.3 1527.29 158.47 1519.13 157.71 1510.76 157.41 1502.97 159.66 1495.66 162.6 1488.34 163.48 1482.19 166.68 1474.75 166.64 1467.08 165.11 1458.93 165.95 1452.75 162.23 1446.19 159.32 1438.63 158.57 1432.38 161.52 1425.72 164.81 1419.15 166.8 1411.3 167.77 1404.01 166.97 1396.24 168.09 1388.54 169.88 1380.96 172.09 1372.91 171.01 1365.22 171.78 1357.63 171.46 1350.15 170.03 1342.49 171.06 1334.86 169.56 1326.69 171.56 1318.55 170.38 1310.57 168.89 1302.35 168.77 1294.24 168.21 1286.16 167.53 1277.97 166.48 1271.09 167.34 1264.13 167.25 1257.45 165.47 1250.81 167.96 1243.79 170.79 1236.47 167.73 1230.36 163.99 1223.12 161.23 1216.44 161.02 1209.94 161.1 1204.03 159.83 1197.8 155.92 1191.04 151.72 1183.63 148.82 1177.39 151.55 1171.19 155.41 1167.99 160.71 1163.17 164.6 1156.96 167.43 1149.93 168.93 1142.7 169.67 1135.5 168.48 1127.85 165.97 1119.1 164.86 1110.72 165.93 1102.88 168.22 1095.13 166.91 1087.35 167.41 1079.49 168.03 1071.87 166.4 1062.55 163.69 1057.89 167.1 1051.93 168.76 1043.81 166.97 1035.85 166.29 1027.51 166.47 1018.53 166.88 1012.55 162.77 1004.83 162.77 997.69 165.21 989.97 168.55 983.23 173.29 975.98 172.93 969.12 172.47 961.53 173.1 954.04 172.31 946.47 172.87 938.96 172.75 931.42 172.2 923.86 172.35 916.43 173.46 908.97 174.37 905.33 174.67 905.33 224.57 1809.5 224.57 1809.5 125.57"/>
    </g>
    <g>
      <polygon class="cls-7" points="1.15 67.74 6.71 68.06 9.95 71.78 14.37 73.95 18.43 76.64 24.44 76.58 28.24 79.7 33.1 81.2 38.47 81.91 42.8 84.69 47.55 86.68 52.47 88.33 57.99 88.56 62.62 90.84 67.58 92.31 73.22 92.3 77.9 94.39 82.59 96.36 87.72 97.55 92.85 98.51 96.9 101.45 102.15 102.12 106.92 103.71 111.72 105.27 116.73 106.37 121.42 108.16 126.99 108.09 130.61 112.04 136.01 112.38 140.98 113.65 145.27 116.05 150.83 117.17 156.55 117.67 162.26 118.71 166.81 121.86 172.4 123.7 175.49 127.47 180.13 130.21 185.34 129.74 190.09 131.35 195.11 131.06 200.08 130.65 205.01 129.86 210 130.43 215.01 130.97 219.93 129.63 224.95 130.67 229.97 129.1 234.87 130.55 239.81 130.32 244.72 129.85 249.6 129.18 254.57 128.59 259.25 130.59 265.1 130.58 270.21 133.39 275.58 133.49 280.91 133.24 286.19 132.74 291.51 133.27 296.67 131.23 301.74 130.91 307.35 132.33 312.54 131.49 316.87 128.48 321.55 126.66 326.42 125.31 330.99 123.36 336.69 123.41 341.37 121.59 346.58 120.6 350.59 117.75 355.3 115.98 359.54 113.1 363.48 110.05 369.17 109.17 373.59 106.38 379.19 106.36 383.8 108.88 389.83 108.17 393.74 111.56 398.68 113.36 403.67 113.62 405.35 117.35 410.52 119.11 415.55 118.01 420.28 116.7 425.38 117.55 430.63 117.8 435.75 118.22 440.78 119.42 444.48 122.43 448.86 124.34 452.11 127.24 456.72 128.61 460.79 130.84 465.47 132.16 471.02 132.29 476.36 133.13 482 133.64 485.46 137.39 489.61 140.01 494.92 141.19 499.96 142.54 504.45 144.61 508.22 148.13 513.96 147.93 518.57 150.14 523.54 151.64 529.04 151.14 534.19 151.81 539.39 152.14 544.54 153.14 549.77 153.99 555.03 153.3 560.31 153.78 565.48 152.53 570.7 152.3 576.05 153.09 581.11 151.31 586.38 151.35 591.41 149.53 596.62 149.06 601.48 150.34 606.42 150.27 610.76 151.53 615.06 152.4 619.71 153.53 623.51 150.73 628.53 151.96 633.13 149.86 638.02 149.38 642.9 148.81 648.03 149.85 652.98 149.85 657.75 148.57 662.59 147.65 667.45 146.82 672.51 148.48 677.34 146.74 682.27 146.24 687.55 146.3 692.86 147.87 698.15 148.17 703.41 146.6 708.7 146.88 714 147.56 719.29 147.39 724.57 146.77 729.87 147.6 735.15 147.27 740.44 147.1 745.66 145.23 750.93 144.81 756.25 145.69 761.58 146.61 766.87 146.44 772.09 145.14 777.3 143.84 782.58 144.25 787.82 144.09 793.07 144.61 798.31 146.19 803.54 144.12 808.78 144.24 814.01 144.57 819.25 146.2 824.48 144.72 829.69 143.65 834.93 144.24 840.23 145.33 845.43 144.52 850.76 145.16 855.71 142.69 860.76 143.69 865.56 142.71 870.37 141.75 875.33 142.4 880.27 143.43 885.14 143.17 890.01 142.73 894.87 140.74 899.72 142.14 904.31 143.51 905.33 143.33 905.33 224.57 1.15 224.57 1.15 67.74"/>
      <polygon class="cls-6" points="1.15 144.6 1.64 144.55 6.64 145.48 11.45 142.9 16.7 144.84 21.78 144.41 26.83 143.87 31.21 140.46 36.28 140.16 41.46 140.19 46.78 140.69 51.6 139.35 56.26 137.37 61.33 136.93 66.58 137.3 71.09 134.48 76.07 133.59 81.44 134.9 86.21 132.58 91.55 134.68 96.53 133.88 101.57 133 106.65 133 111.67 133.95 116.77 133.61 121.81 134.53 127.04 134.26 131.88 136.07 137.22 135.43 142.31 135.96 147.36 136.66 152.45 137.01 157.56 137.06 162.92 139.38 168.28 137.76 173.44 136.38 178.58 135.07 184.32 135.19 189.59 134.07 194.91 133.22 200.05 133.28 205.34 131.68 210.58 132.6 215.17 135.12 220.74 135.07 225.36 137.64 231.05 136.8 236.21 138.02 241.37 136.67 246.6 136.34 251.74 134.46 256.78 132.23 263 131.56 267.7 135.05 273.54 135.84 277.94 138.78 282.26 141.87 287.65 143.7 292.53 144.56 297.59 143.4 302.38 145.34 307.23 145.54 311.63 147.1 317.18 147.99 322.95 149.01 327.44 152.07 332.57 154.54 338.12 153.44 343.09 155.33 348.08 152.96 353.35 154.89 358.36 155.08 363.59 152.9 368.2 155.2 371.85 157.87 377.99 159 380.75 163.51 386.41 165.27 391.92 167.24 397.97 167.37 403.71 165.02 409.62 167.11 414.78 166.48 419.99 165.47 425.16 165.6 430.24 167.52 435.47 166.54 440.54 168.06 445.79 167.08 451.01 166.63 456.15 167.15 461.28 167.81 466.44 167.87 471.59 167.98 476.75 167.76 481.88 169.28 487.05 167.49 492.2 167.93 497.36 168.79 502.49 167.38 507.67 168.21 512.83 168.37 517.94 167.26 523.17 168.63 528.28 167.64 533.47 168.02 538.54 166.64 543.71 166.83 548.94 167.61 553.91 165.25 559.15 166.06 564.38 166.79 569.46 165.77 574.64 165.91 579.72 164.95 584.8 164.01 590.12 165.47 595.02 162.84 600.37 164.55 605.32 162.43 610.46 162.13 615.71 162.88 620.91 163.17 625.88 161.12 631.08 161.44 636.17 160.5 641.34 160.48 646.53 160.82 651.59 159.38 656.92 161.68 661.92 159.21 667.17 160.73 672.26 159.27 677.47 160.41 682.6 159.87 687.76 159.87 692.88 158.5 698.06 159.89 703.21 159.4 708.35 158.57 713.71 159.95 718.94 159.52 724.08 158.66 728.49 155.43 733.45 154.41 738.75 154.21 744.16 154.04 749.29 153.12 753.85 150.98 758.67 149.43 763.45 147.79 766.98 144.11 772.57 143.81 777.5 142.07 783.03 141.73 787.44 138.56 791.99 136.46 797.2 134.86 801.76 132.54 806.69 130.96 810.59 130.23 813.74 130.25 817.76 128.71 820.83 126.7 825.9 126.31 830.21 128.45 833.24 131.91 838.33 133.32 842.88 135.48 848.06 136.53 852.87 138.24 857.83 139.68 862.12 142.4 867.91 142.38 872.65 144.32 876.83 147.02 881.84 148.67 884.21 153.04 889.99 154.33 893.36 157.57 896.73 160.36 902.34 160.11 905.33 160.02 905.33 224.57 1.15 224.57 1.15 144.6"/>
      <polygon class="cls-8" points="1.15 125.57 7.98 125.15 14.22 128.31 20.76 130.66 27.26 133.19 34.57 134.12 41.65 135.65 48.72 136.44 55.97 136.26 62.48 140.94 69.38 139.92 75.77 143.44 82.95 146.22 88.84 150.33 94.86 154.33 101.84 157.05 109.22 159.19 117.06 159.87 124.97 161.8 132.27 164.73 138.19 169.35 145.83 171.8 153.76 173.38 162.02 173.64 169.65 171.34 176.75 168.08 185.15 168.21 192.36 168.42 199.54 167.63 206.72 166.29 214.07 167.6 221.14 166.01 227.3 163.31 234.2 161.26 240.83 159.24 249.25 157.63 258.11 158.34 266.96 157.73 275.14 157.3 283.36 158.47 291.52 157.71 299.89 157.41 307.69 159.66 314.99 162.6 322.31 163.48 328.47 166.68 335.9 166.64 343.57 165.11 351.73 165.95 357.91 162.23 364.47 159.32 372.03 158.57 378.28 161.52 384.94 164.81 391.51 166.8 399.35 167.77 406.65 166.97 414.41 168.09 422.11 169.88 429.69 172.09 437.74 171.01 445.43 171.78 453.02 171.46 460.5 170.03 468.16 171.06 475.79 169.56 483.96 171.56 492.1 170.38 500.09 168.89 508.31 168.77 516.42 168.21 524.5 167.53 532.68 166.48 539.57 167.34 546.52 167.25 553.2 165.47 559.84 167.96 566.86 170.79 574.18 167.73 580.3 163.99 587.54 161.23 594.22 161.02 600.71 161.1 606.62 159.83 612.85 155.92 619.61 151.72 627.02 148.82 633.26 151.55 639.47 155.41 642.66 160.71 647.48 164.6 653.69 167.43 660.72 168.93 667.95 169.67 675.15 168.48 682.8 165.97 691.56 164.86 699.93 165.93 707.77 168.22 715.53 166.91 723.31 167.41 731.16 168.03 738.79 166.4 748.1 163.69 752.76 167.1 758.72 168.76 766.84 166.97 774.8 166.29 783.14 166.47 792.12 166.88 798.11 162.77 805.82 162.77 812.97 165.21 820.69 168.55 827.42 173.29 834.67 172.93 841.53 172.47 849.12 173.1 856.62 172.31 864.19 172.87 871.7 172.75 879.24 172.2 886.8 172.35 894.22 173.46 901.68 174.37 905.33 174.67 905.33 224.57 1.15 224.57 1.15 125.57"/>
    </g>
  </g>
  <g>
    <path class="cls-4" d="m604.72,91.98c-.91-.02-1.74-.03-2.55-.01,3.8.14,7.61.51,11.45.86-2.11-.28-4.81-.74-8.9-.85Z"/>
    <path class="cls-4" d="m1807.89,194.42c-5.39,4.53-11.42.16-17.34.6-3.16-4.02-8.21-1.29-11.96-3.3-.59-.32-1.85-.19-2.34.25-2.26,2.02-4.77,1.63-7.42,1.28-1.79-.23-3.76-.35-5.45.15-6.99,2.06-14.17,3.15-21.37,3.23-5.23.06-10.48.3-15.7.11-1.5-.05-3.11-1.12-4.39-2.09-1.84-1.37-3.55-1.65-5.51-.48-4.23,2.51-7.5.47-10.62-2.26-1.34-1.17-2.67-2.34-3.9-3.42-.7.42-1.1.52-1.24.77-3.9,6.88-10.27,6.05-16.55,5.21-1.01-.13-1.91-1.2-2.83-1.87-2.16-1.56-3.96-1.13-6.38.07-5.86,2.91-11.78,6.17-18.77,2.27-2.6-1.45-5.97-1.65-9.04-2.04-1.12-.14-2.63.55-3.52,1.36-2.17,1.98-4.52,2.35-7.35,2.13-4.22-.32-8.48-.07-12.72-.27-2.89-.14-5.77-.65-9.6-1.11-3.72,1.99-8.52,1.27-12.99-.95-5.29-2.63-7.09-2.48-10.74,2-1.62,0-2.98-.03-4.34.01-1.75.05-3.5.1-5.25.25-4.56.39-9.04-.08-13.47-1.18-1.4-.35-2.84-.54-4.25-.82-2.24-.45-4.47-.93-6.71-1.39-2.24.46-4.47.94-6.71,1.39-1.41.28-2.85.47-4.25.82-4.43,1.1-8.91,1.57-13.47,1.18-1.75-.15-3.5-.2-5.25-.25-1.36-.04-2.72-.01-4.34-.01-3.65-4.48-5.45-4.63-10.74-2-4.47,2.22-9.27,2.94-12.99.95-3.83.46-6.71.97-9.6,1.11-4.24.2-8.5-.05-12.72.27-2.83.22-5.18-.15-7.35-2.13-.89-.81-2.4-1.5-3.52-1.36-3.07.39-6.44.59-9.04,2.04-6.99,3.9-12.91.64-18.77-2.27-2.42-1.2-4.22-1.63-6.38-.07-.92.67-1.82,1.74-2.83,1.87-6.28.84-12.65,1.67-16.55-5.21-.14-.25-.54-.35-1.24-.77-1.23,1.08-2.56,2.25-3.9,3.42-3.12,2.73-6.39,4.77-10.62,2.26-1.96-1.17-3.67-.89-5.51.48-1.28.97-2.89,2.04-4.39,2.09-5.22.19-10.47-.05-15.7-.11-7.2-.08-14.38-1.17-21.37-3.23-1.69-.5-3.66-.38-5.45-.15-2.65.35-5.16.74-7.42-1.28-.49-.44-1.75-.57-2.34-.25-3.75,2.01-8.8-.72-11.96,3.3-5.92-.44-11.95,3.93-17.34-.6-4.82,2.72-9.59,3.52-14.32,3.03-4.73.49-9.5-.31-14.32-3.03-5.39,4.53-11.42.16-17.34.6-3.16-4.02-8.21-1.29-11.96-3.3-.59-.32-1.85-.19-2.34.25-2.26,2.02-4.77,1.63-7.42,1.28-1.79-.23-3.76-.35-5.45.15-6.99,2.06-14.17,3.15-21.37,3.23-5.23.06-10.48.3-15.7.11-1.5-.05-3.11-1.12-4.39-2.09-1.84-1.37-3.55-1.65-5.51-.48-4.23,2.51-7.5.47-10.62-2.26-1.34-1.17-2.67-2.34-3.9-3.42-.7.42-1.1.52-1.24.77-3.9,6.88-10.27,6.05-16.55,5.21-1.01-.13-1.91-1.2-2.83-1.87-2.16-1.56-3.96-1.13-6.38.07-5.86,2.91-11.78,6.17-18.77,2.27-2.6-1.45-5.97-1.65-9.04-2.04-1.12-.14-2.63.55-3.52,1.36-2.17,1.98-4.52,2.35-7.35,2.13-4.22-.32-8.48-.07-12.72-.27-2.89-.14-5.77-.65-9.6-1.11-3.72,1.99-8.52,1.27-12.99-.95-5.29-2.63-7.09-2.48-10.74,2-1.62,0-2.98-.03-4.34.01-1.75.05-3.5.1-5.25.25-4.56.39-9.04-.08-13.47-1.18-1.4-.35-2.84-.54-4.25-.82-2.24-.45-4.47-.93-6.71-1.39-2.24.46-4.47.94-6.71,1.39-1.41.28-2.85.47-4.25.82-4.43,1.1-8.91,1.57-13.47,1.18-1.75-.15-3.5-.2-5.25-.25-1.36-.04-2.72-.01-4.34-.01-3.65-4.48-5.45-4.63-10.74-2-4.47,2.22-9.27,2.94-12.99.95-3.83.46-6.71.97-9.6,1.11-4.24.2-8.5-.05-12.72.27-2.83.22-5.18-.15-7.35-2.13-.89-.81-2.4-1.5-3.52-1.36-3.07.39-6.44.59-9.04,2.04-6.99,3.9-12.91.64-18.77-2.27-2.42-1.2-4.22-1.63-6.38-.07-.92.67-1.82,1.74-2.83,1.87-6.28.84-12.65,1.67-16.55-5.21-.14-.25-.54-.35-1.24-.77-1.23,1.08-2.56,2.25-3.9,3.42-3.12,2.73-6.39,4.77-10.62,2.26-1.96-1.17-3.67-.89-5.51.48-1.28.97-2.89,2.04-4.39,2.09-5.22.19-10.47-.05-15.7-.11-7.2-.08-14.38-1.17-21.37-3.23-1.69-.5-3.66-.38-5.45-.15-2.65.35-5.16.74-7.42-1.28-.49-.44-1.75-.57-2.34-.25-3.75,2.01-8.8-.72-11.96,3.3-5.92-.44-11.95,3.93-17.34-.6-7.14,4.03-14.15,3.84-21.14,1.51-5.24-1.74-10.58-1.93-15.96-1.86-3.78.06-7.55.66-11.33.68-3.45.02-6.91-.34-10.35-.68-1.09-.1-2.7-.33-3.12-1.06-2.18-3.73-5.4-3.19-9.29-2.15-1.03-2.36-2.47-4.5-2.85-6.81-.64-3.98-2.33-7.23-4.98-10.13-1.95-2.12-3.84-4.29-5.85-6.54,8.26-3.53,10.55-7.78,9.24-16.3-.24-1.59-.19-3.23-.28-4.96,4.68-2,9-2.17,13.38-.36,5.3,2.19,10.61,2.6,15.92.01,2.67-1.31,5.33-2.62,8.17-4.02.61.38,1.33.78,1.99,1.25,4.28,3.02,8.92,2.59,13.08-1.21,2.65-2.43,2.43-4.75-.36-9.89-2.55-4.67-4.83-9.48-7.14-14.28-.41-.86-.62-1.97-.52-2.91.77-6.98-1.62-13.04-4.91-18.99-1.88-3.4-2.63-7.06-.65-10.98,1.02-2.01,1.32-4.48,1.55-6.78.47-4.8-1.05-8.99-4.6-13.24,0,3.22.4,5.67-.1,7.91-.57,2.56-1.96,4.93-2.95,7.4-.24.61-.29,1.3-.49,1.93-1.63,5.24-2.49,5.77-8.42,5.18-1.9-5.77-2.08-12.19-5.87-17.53-1.03,3.76-2.17,7.53-2.04,11.25.14,3.67,1.57,7.3,2.51,11.28-2.05.35-3.64.63-5.28.92-.78-1.32-1.43-2.41-2.23-3.77-6.52.55-12.99.88-19.41,1.69-6.44.8-12.82,2.07-19.39,3.16-.43-2.51.84-3.76,3.09-4.15,1.14-.2,2.29-.36,3.45-.5,1.16-.14,2.32-.27,3.47-.43,1.38-.2,2.75-.47,5.26-.91-3.45-2.27-4.2-6.13-8.33-5.38-.6.1-1.45-.73-2.08-1.25-4.67-3.8-10.21-4.6-15.95-4.86-2.59-.12-4.4.61-5.62,3.14-.65,1.35-2.07,2.78-3.45,3.23-2.62.84-5.45,1.3-8.21,1.37-3.97.11-7.96-.34-11.94-.4-.85-.01-1.48-.01-2.07,0-.22,0-.44.01-.66.01-.25.01-.5.01-.76.02-.14.01-.29.01-.44.01-1.08.04-2.47.08-4.88.11-.48.01-1.01.01-1.58.02-1.09,0-2.13.02-3.09.02-.01,0-.02-.01-.02-.01-.13-.06-.26-.13-.39-.2-1.06-.58-1.63-1.01-3.06-1.95-2.47-1.63-6.09-3.85-10.89-6.22-1.06-.47-2.12-.94-3.18-1.41-.02-.01-.04-.02-.06-.03-1.47-.04-3.79,0-6.53.56-6.98,1.43-9.27,4.53-16.15,7.59-.46.2-.94.41-1.44.61-3.62,1.46-7.6,2.39-11.49,2.75-5.52.52-8.33.18-13.59.12-.43-.01-.89-.01-1.36-.01-4.03,0-9.79.25-16.84,1.53-15.03,1.21-30.06,2.43-45.09,3.65-6.47,3.39-12.43,6.24-18.12,9.56-7.1,4.14-12,10.08-12.55,18.64-.34,5.3-.49,10.67-.16,15.97.6,9.5-.6,18.65-4.37,27.37-1.94,4.46-4.45,8.62-9.76,9.93-2.82.69-5.62,1.5-7.61,2.04-4.99,3.09-9.15,6.3-13.8,8.42-6.74,3.08-13.87,5.27-20.75,8.04-3.94,1.59-7.07.68-10-2.13-1.4-1.35-2.93-2.71-4.65-3.54-10.72-5.14-21.51-10.15-32.28-15.18-2.8-1.31-5.69-2.46-8.42-3.89-5.84-3.06-11.59-6.27-17.4-9.38-4.78-2.57-9.19-5.9-14.53-7.39-.46-.12-.85-.51-1.26-.79-2.19-1.45-4.4-2.86-6.54-4.38-.83-.6-1.88-.99-2.72-1.69-5.95-3.98-12.59-7.91-19.95-11.58-.08-.04-.16-.08-.24-.12-2.01-.96-4.02-1.92-6.04-2.87.16-.34.32-.68.48-1.02,4.55.71,8.03,3.8,12.14,5.47,5.72,3.46,9.97,6.11,12.74,7.95,1.96,1,4.05,2,6.29,2.96,2,.86,3.93,1.62,5.78,2.3.16-.63.3-1.56,0-2.56-.59-1.99-2.51-3.01-3.2-3.42-3.92-2.37-5.2-8.4-7.19-15.3-.98-3.4-1.04-7.08-1.46-10.63-.11-.95,0-1.93,0-4.19,2.88,5.73,6.77,7.44,11.58,5.65,2.8-1.05,5.27-1.42,8.17.63.92-2.06,1.98-3.62,2.32-5.33,1.46-7.23,3.92-9.42,11.59-9.83,2.78-.15,7.05-3.58,7.92-6.46.08-.28-.36-.72-.46-.89,2.35-1.57,4.56-3.04,6.76-4.53,2.21-1.49,4.41-2.99,6.59-4.52,2.32-1.62,4.62-3.28,6.93-4.93,2.17-1.55,4.53-2.89,6.44-4.71,1.28-1.22,3.48-1.56,4.66-3.23.72.57,2.46.58,3.79.68,2.76.21,2.72.71,8.72,2.32,10.41,2.78,22.22,4.32,23.93,4.62,1.61.27,3.25.39,4.89.46,6.03.97,12.08,1.82,18.15,2.53,15.03,1.74,30.18,2.62,45.32,2.37,10.11-.12,20.48-.59,30.14-4,15.69-5.33,24.23-17.59,31.88-31.43,2.51-4.35,4.94-8.82,7.04-13.4,2.11-4.58,4.05-9.19,6.72-13.42,5.3-8.48,12.24-15.93,20.15-22.1l-.18-.24c-8.06,6.03-15.19,13.38-20.74,21.85-2.78,4.25-4.85,8.9-7.04,13.39-2.18,4.53-4.64,8.85-7.24,13.17-7.62,13.29-16.07,25.23-31.3,30.13-9.43,3.17-19.53,3.44-29.44,3.36-10.02-.03-20.03-.56-30.01-1.33-18.62-1.38-37.15-3.73-55.61-6.6-2.76-.99-6.77-2.36-11.75-3.39-2.77-.57-5.09-.91-6.66-1.1-.08-.01-.15-.02-.22-.03-.92.26-1.53.31-1.96.62-9.01,6.28-17.98,12.61-27,18.88-1.2.84-2.53,1.68-3.92,2.06-6.46,1.76-12.66,3.95-17.97,8.29-3.29,2.7-7.29,3.65-11.39,3.38-1.12-7.6-1.22-15.19-7.14-20.75-3.73-3.08-5.86-4.38-6.37-3.92,2.1-6.12,3.03-12.33,2.19-18.7-.54-4-4.03-6.75-8.52-7.03-3.95-.25-7.69,2.86-8.7,6.05-.98,3.12.3,7.56.58,8.55.04.12.17.56.3,1.18.45,2.01.83,3.45.28,4.5-.46.91-1.5,1.55-3.34,2.17-1.38.47-2.63,1.1-5.06,1.9-2.69.88-3.32,1-5.37,1.74-1.33.47-2.4.9-3.08,1.18-2.44,2.72-6.09,6.8-8.53,9.52-2.78,3.1-5.51,6.15-8.26,9.2-2.44,8.8,1.42,15.16,9.2,19.51,0,4.1-.36,7.8.11,11.4.39,3.04,1.7,5.97,2.64,8.93.44,1.38,1.11,2.7,1.4,4.1,1.09,5.19-.9,10.21-1,15.32-.13,6.02-2.29,11.3-4.66,16.68-1.71,3.89-2.58,8.17-3.74,12.29-.47,1.67-.74,3.39-1.21,5.57-2.26-1.51-3.85-2.57-5.72-3.81-4.8,5.27-9.88,3.77-13.73,1.35-3.82.22-6.38.45-8.95.5-7.05.14-14.05.33-21.12-.82-4.49-.73-9.49-2.34-13.93,1.12-.71.54-2.25.05-3.4,0-6.88-.29-13.76-.61-20.65-.85-.79-.02-1.59.47-2.4.64-.79.17-1.64.41-2.41.29-2.17-.37-4.31-.91-6.89-1.47-.28-.44-.7-1.39-1.38-2.09-.74-.77-1.96-2.01-2.55-1.81-.99.34-2.19,1.57-2.36,2.58-.58,3.55-3.17,3.8-5.68,4.29-5.05-5.15-11.43-4.22-17.37-4.1-3,.06-5.96,1.8-9.16,2.85-5.23-4.1-11.57-2.84-17.2-2.05-6.43.91-12.55-.22-18.81-.23-1.24-.01-2.66-.06-3.68.49-2.83,1.51-4.83,1-7.01-1.36-3.31-3.61-6.06-3.75-10.66-1.52-1.29.63-2.77.97-4.21,1.15-3.09.39-6.22.49-9.31.9-4.08.56-8.03.38-12.08-.53-4.52-1.02-9.35-2.65-13.1,1.75-6.02-.72-11.91-1.93-17.88-.41v63.99h1809.5v-57.66c-.54-.26-1.07-.54-1.61-.84Zm-1497.43-1.74c-2.67-.32-4.69-.64-6.72-.79-1.44-.11-3.04-.39-4.34.07-4.99,1.78-9.4,1.44-13.15-2.67-.19-.21-.61-.24-1.38-.51-2.09.83-4.53,1.79-7.37,2.92-3-2.24-6.36-1.4-9.9-.03-2.06.81-4.41.9-7.66,1.5,2.08-6.84,2.33-13.09,7.16-17.99,1.85-1.87,2.53-4.95,3.58-7.54.94-2.28,1.66-4.66,2.5-7.07,2.61-.24,4.89-.45,7.32-.67,1.73-4.22.26-9.52,4.79-13.2,2.51,2.47,5.22,4.67,7.35,7.33,2.87,3.59,5.89,5.28,10.02,2.39,4.59,3.26,6.92,7.01,6.59,12.75-.29,5.09.82,10.25,1.18,15.39.17,2.43.03,4.88.03,8.12Zm62.8.15c-2.31,1.77-4.97,2.4-7.95,1.36-1.35-.47-2.91-.31-4.37-.5-1.78-.23-3.63-.29-5.31-.84-4.04-1.32-7.92-3.71-12.2-.57-.55.4-1.62.14-2.45.1-.49-.02-.97-.29-1.45-.28-4.91.09-9.58-.51-14.17-2.68-1.49-.71-4,.71-6.68,1.29.42-5.65,1.1-11.13,1.18-16.63.07-5.43-.47-10.87-.8-17.41,7.71,4.31,14.62,8.13,21.49,12.02,6.93,3.93,13.83,7.92,20.73,11.91,6.6,3.81,13.64,6.92,19.82,11.69-2.94-2.26-5.28-1.41-7.84.54Zm288.33-102c-2.56,2.65-4.01,3.94-5.33,3.94-.09,0-.19-.01-.28-.02-.29-.03-.57-.14-.86-.3-.1-.06-.19-.12-.28-.18-.45-.3-.93-.75-1.47-1.34-.38-.41-.78-.89-1.22-1.43,3.56-.25,6.25-.45,9.44-.67Zm-3.85,11.84c2.55-1.79,6.5-.42,7.01,2.99.84,5.67,3.63,10.21,6.38,14.96,1,1.73.67,4.19,1.08,6.29.53,2.75.7,5.71,1.89,8.16,2.66,5.49,4.13,11.69,8.85,16.07.33.31.49.88.59,1.35.1.47.02.97.02,1.84-2.55.55-5.09,1.1-8.35,1.81-.13-.53-.25-1.09-.36-1.66-.24-1.23-.45-2.56-.59-3.98-.06-.57-.11-1.15-.15-1.75-.05-.83-.08-1.64-.08-2.41-.01-.08-.01-.16-.01-.23-.53-1.7-1.07-3.41-1.6-5.11-7.07-11.06-13.97-21.86-21.07-32.99,1.91-1.62,4.02-3.66,6.39-5.34Zm-173.52,52.72c.58,1.3.89,2,1.46,3.26-3.32,1-6.35,1.92-9.38,2.83-.12-.24-.24-.48-.36-.73,2.66-1.72,5.31-3.44,8.28-5.36Zm.04,36.24c-1.59-.9-3.02-1.11-4.61.06-.76.56-1.88,1.09-2.73.95-3.79-.6-7.48-1.02-10.9,1.33-.35.24-1.17.31-1.43.08-3.56-3.28-7.87-1.64-11.88-1.93-.78-.06-1.53-.5-3.44-1.16,2.43-3.36,4.31-6.24,6.49-8.88,2.11-2.55,4.61-4.78,6.8-7.27,2.33-2.65,5.65-2.53,8.63-3.29.4-.1,1.1.96,1.66,1.48,2.6-3.49,5.9-4.98,13.37-5.96.42,4.27-.89,8.05-3.03,11.56-2.96,4.88-2.97,5.15,1.03,9.28,1.1,1.14,1.97,2.5,2.41,4.5-.8-.24-1.67-.35-2.37-.75Zm50.4-6.5c-4.02.88-6.37,3.09-6.15,6.94-4.5,4.34-9.75,2.51-14.63,2.61-4.7.09-8.6-3.34-13.39-3.38-.81,0-2.26-1.78-2.28-2.77-.07-3.08-.38-6.52.82-9.19,2.49-5.56,5.9-10.71,9.07-16.28,8.48.2,8.54,8.76,12.3,13.35,5.06-.84,5.12-.9,5.41-4.57.48-6.09,5.88-11.16,12.95-11.65-.18,8.53-2.52,16.59-4.1,24.94Zm17.69,9.42c-.62.02-1.52-.14-1.83-.56-2.1-2.78-5.02-1.91-8.17-1.64-.11-7.94,1.92-14.95,5.48-21.67,2.68-5.07,6.59-8.19,12.63-9.11.51,4.18-.69,7.98-2.15,11.56-1.2,2.95-.69,5.29.48,8.06,1.65,3.89,2.71,8.04,4.24,12.74-4.44.27-7.56.5-10.68.62Zm20.13-17.29c1.26,4.66,2.23,8.27,3.44,12.75-4.92-1.77-5.1-2.54-3.44-12.75Zm16.92-84.53c4.26-.79,8.51-.92,12.76-.76h.01c.81-.02,1.64-.01,2.55.01,4.09.11,6.79.57,8.9.85,4.48.41,9,.46,13.52.42,4.6-.04,9.21-.18,13.8-.15,1.72.01,3.44.18,5.16.27.03.45.04.89.07,1.34,0,.07.01.14.01.21-1.55-.39-2.82-.03-4.06.48-.7.29-1.4.63-2.13.9-3.28,1.22-7.14,1.04-10.77,1.13-2.46.07-4.98-.2-7.42-.66-10.63-1.98-21.38-1.57-32.1-1.88-.9-.03-1.78-.42-2.73-1.4.81-.26,1.6-.61,2.43-.76Zm62.88,101.96c-6.61-.59-12.61-1.33-18.63-1.6-3.18-.14-6.49.14-9.56.92-4.76,1.2-8.25-.6-11.5-3.65-.93-.87-1.86-1.74-3.27-3.06-1.1,2.42-1.96,4.29-2.66,5.82-2.23.39-4.11.72-5.98,1.05-.49.09-1.17.44-1.44.24-3.39-2.55-6.74-1.19-10.1.77-.14-.44-.28-.88-.43-1.32,1.66-1.15,3.17-2.85,5-3.33,4.95-1.3,7.31-4.27,7.33-9.29,0-.48.19-.97.33-1.45.04-.14.21-.25.81-.9,5.01,1,10,.27,13.87-4.34,3.94-4.69,1.84-10.17,2.08-15.44,4.68-2.29,9.06-3.55,14.01-1.49,5.09,2.11,10.36,3.59,15.99,3.48,1.52-.03,3.06.78,4.15,1.09v32.5Zm30.56-2.71c-1.19-.88-3.54-.84-5.12-.39-2.96.84-5.75,2.3-8.75,3.56-2.49-.38-5.32-.8-9.22-1.39.22-7.29,5.14-13.69,4.56-21.2,3.6-.35,6.53-.64,10.1-.99,1.74,1.66,3.92,3.67,6.01,5.77,3.98,4,8.01,7.98,11.82,12.15,1.49,1.63,2.43,3.76,3.29,6.03-4.33-1.29-8.89-.72-12.69-3.54Z"/>
    <path class="cls-4" d="m372.16,69.45c.07.01.14.02.22.03,0-.03.01-.07.01-.1-.08.02-.16.05-.23.07Z"/>
    <path class="cls-4" d="m485.68,158.65c-3.32,1-6.35,1.92-9.38,2.83-.12-.24-.24-.48-.36-.73,2.66-1.72,5.31-3.44,8.28-5.36.58,1.3.89,2,1.46,3.26Z"/>
  </g>
</svg>