<svg width="711" height="46" viewBox="0 0 711 46" fill="none" xmlns="http://www.w3.org/2000/svg">
<path d="M7.60749 20.9903C11.4555 21.3358 16.5719 22.1501 20.4921 22.8688C21.7123 23.0923 21.0419 23.4485 21.8871 23.6211C23.5493 23.9583 25.1212 23.9057 26.7591 24.2616C27.3058 24.3819 26.5518 24.984 27.128 25.0949C30.2569 25.6941 33.2631 25.7964 36.4577 26.2206C48.5516 27.8228 60.5591 29.0115 72.7475 30.1486C76.4281 30.4913 80.0616 30.7964 83.7894 31.0785C89.0575 31.4803 95.4266 32.3694 100.907 32.2635C101.549 32.2509 101.184 31.6501 101.307 31.6052C103.231 30.916 102.565 32.0876 103.791 32.2779C108.693 33.0292 114.199 33.1554 118.938 32.9294C120.948 32.8304 118.927 31.6613 120.955 32.3151C121.098 32.3591 120.581 32.9867 121.141 33.0519C122.406 33.1996 124.783 33.0697 125.751 33.1074C127.615 33.1841 127.942 33.1728 129.704 33.149C132.121 33.1206 135.03 33.3585 137.611 33.1279C138.169 33.0765 137.411 32.4607 138.292 32.3205C139.153 32.1824 141.483 32.1433 142.299 32.2564C143.095 32.3719 142.781 32.891 142.926 33.0001C144.104 33.9256 146.77 32.4289 147.091 32.3744C150.57 31.852 153.836 31.7278 156.839 31.5252C159.413 31.3235 161.957 31.1347 164.588 30.7505C169.052 30.0981 173.823 29.0653 178.082 28.3912C183.165 27.5876 187.528 27.1907 192.481 26.2757C192.991 26.182 192.263 25.5421 192.888 25.4255C199.668 24.1649 206.4 23.0746 213.204 22.4056C213.889 22.3387 213.131 23.1435 213.823 23.1155C218.042 22.9326 224.851 23.0724 226.787 19.8063C228.745 19.5417 230.805 19.2612 232.886 19.1209C233.865 19.0588 234.795 19.0355 235.641 19.0757C237.317 19.1497 235.89 20.1468 237.801 19.4792C238.231 19.329 237.538 18.8157 238.193 18.6367C240.949 17.8832 244.046 17.4737 246.736 16.571C247.282 16.3863 247.011 15.8645 247.147 15.7313C248.309 14.6415 250.809 15.4888 251.318 15.4755C255.159 15.3722 257.775 14.451 261.194 13.6195C261.991 13.4247 260.867 12.9219 261.625 12.7083C265.535 11.6145 269.614 10.5919 273.549 9.8322C274.415 9.66718 273.814 10.5106 274.237 10.4636C276.131 10.2378 276.183 8.94836 277.978 8.69992C278.358 8.64519 278.309 9.23771 278.392 9.27669C279.688 9.89358 280.222 8.31991 280.47 8.21481C283.722 6.81499 286.283 7.50261 289.476 6.29258C289.859 6.14604 288.774 5.75075 289.854 5.38191C290.649 5.11025 291.457 4.83844 292.25 4.57707C299.404 2.34766 306.705 2.12078 313.541 2.20156C314.722 2.22574 313.909 2.79663 313.986 2.85757C315.242 3.8094 315.975 2.41583 316.352 2.34793C319.387 1.84721 322.265 2.91225 324.287 1.24475C337.188 1.52812 349.917 0.718163 362.623 1.88781C362.772 1.90007 362.55 2.47717 362.768 2.58465C362.787 2.59361 362.809 2.5993 362.835 2.6011C366.8 2.89444 366.005 1.87066 368.523 0.554241C369.17 0.223466 371.206 1.73451 371.373 1.84579C372.015 2.25361 371.367 3.25864 371.581 3.33655C373.355 3.94865 372.972 0.653083 375.393 0.633178C375.468 0.638137 375.154 1.24738 375.358 1.30629C375.991 1.49129 376.61 1.24651 377.218 1.45269C378.626 1.93071 379.027 3.5304 381.217 2.59916C381.485 2.47902 381.089 0.605327 383.209 0.701257C384.007 0.738344 387.846 0.73872 388.854 0.87723C389.882 1.01281 389.166 1.60559 389.239 1.6327C392.074 2.47411 391 2.78858 392.387 3.9951C393.759 5.19975 393.43 2.38864 394.003 2.08856C394.588 1.78881 396.685 2.50298 397.169 2.74754C397.664 2.99141 397.027 3.35522 397.468 3.49821C400.408 4.43951 398.831 2.15021 399.839 1.73944C402.203 0.770831 403.982 2.93117 406.051 3.24225C406.61 3.32669 406.172 2.82922 406.697 2.81291C408.789 2.7582 409.921 3.4758 412.296 3.04568C412.652 2.9726 414.674 1.86859 415.791 2.88431C415.948 3.03032 415.43 3.5064 416.266 3.69374C417.582 3.9787 419.863 4.3088 421.284 4.28818C422.31 4.26985 421.233 3.29344 422.491 3.69866C423.065 3.88232 421.925 4.25642 423.001 4.56018C424.053 4.85758 426.776 5.17931 427.823 5.31302C428.87 5.44257 428.389 4.72098 428.48 4.68958C429.01 4.50927 431.075 4.50621 431.243 4.53634C439.113 5.62609 446.046 8.51172 453.348 9.58446C454.401 9.72901 455.449 9.86886 456.506 10.0019C457.193 10.0905 456.853 9.3402 456.959 9.34678C459.338 9.47447 457.194 10.9365 458.687 11.829C458.709 10.4245 459.619 10.8416 461.273 11.0296C462.07 11.1207 461.755 10.5066 461.838 10.4677C463.178 9.91829 463.76 11.1337 463.918 11.3906C464.504 12.3374 465.549 11.6259 465.942 12.2681C466.331 12.906 464.963 13.3682 466.493 13.7398C467.045 13.3676 466.219 11.8209 467.442 11.9142C472.098 12.2436 479.91 15.7345 483.327 16.9078C486.759 18.0807 487.901 18.3331 489.863 19.1131C493.412 20.514 492.362 19.1953 494.735 19.4313C497.125 19.6637 495.368 21.619 495.555 22.2028C495.736 22.7835 496.243 22.3838 496.562 22.7647C496.882 23.146 495.927 23.2353 496.835 23.601C497.467 23.8548 498.981 23.8582 500.044 23.7003C500.502 23.6204 500.885 23.5079 501.033 23.3732C502.031 22.4571 501.14 21.0392 503.519 22.0212C503.657 22.0776 503.06 22.581 503.582 22.7631C507.862 24.202 512.482 25.0126 516.861 26.1426C517.468 26.2988 516.808 26.8952 517.161 26.994C520.804 28.0114 519.696 26.6548 521.896 25.6763C521.174 27.3123 522.179 28.5359 524.989 28.9529C526.715 29.2082 526.499 28.4151 527.679 28.046C528.029 27.9339 529.179 28.6178 529.436 28.2954C530.315 27.2471 529.345 25.8055 532.207 26.7201C532.332 26.7619 531.839 27.3347 532.274 27.433C535.088 28.0692 535.594 26.9141 538.71 27.1769C541.142 27.3814 545.358 28.667 548.112 29.1324C547.809 31.0503 550.48 30.9364 551.701 29.739C553.486 30.015 555.434 30.1774 557.147 30.5717C557.737 30.7068 557.277 31.2169 557.345 31.2863C558.385 32.3717 559.321 31.1736 559.714 31.1696C563.972 31.1831 567.28 32.5686 571.4 32.0824C571.547 32.0646 571.936 30.7533 572.892 31.8564C572.954 31.9318 571.559 32.3858 573.438 32.6538C575.32 32.9223 578.794 34.0547 581.485 33.7381C582.142 33.6631 583.854 32.7602 585.055 33.76C585.213 33.8952 584.981 34.2574 585.204 34.4998C585.928 35.2737 586.506 33.9692 587.323 35.229C587.788 35.9486 588.596 36.6124 589.698 36.9566C590.532 37.2155 591.534 37.2995 592.705 37.1019C592.792 37.0893 593.551 36.0963 594.379 36.2204C595.701 36.4189 597.546 36.8905 598.931 37.0661C599.591 37.1493 599.257 36.4289 599.373 36.4318C603.862 36.6421 606.959 37.6415 611.702 38.3986C612.574 38.5401 615.174 37.8774 616.804 38.7433C618.608 39.6892 616.399 42.8211 620.794 42.3767C622.597 42.1961 625.023 38.1807 628.021 40.5152C634.109 40.314 639.682 41.6072 645.751 40.9592C646.023 40.9306 646.906 39.781 647.558 39.8072C648.52 39.8484 649.008 40.3998 649.693 40.4446C652.568 40.6451 655.151 40.1954 657.903 40.2721C658.959 40.2995 658.596 40.8628 659.824 40.8936C660.837 40.9179 661.58 40.4205 662.768 40.4357L662.729 40.44C662.983 40.3898 663.259 40.3596 663.567 40.3586C664.862 40.358 666.434 41.569 668.121 41.3848C667.868 39.9096 669.005 39.695 670.936 38.874C671.31 38.715 670.781 38.2967 670.953 38.195C671.649 37.7703 672.429 38.0435 673.072 37.6064C673.227 37.5014 673.129 37 673.253 36.8851C674.29 35.8924 676.511 36.5926 676.894 36.716C678.349 37.1831 678.824 36.4041 679.882 36.488C680.939 36.5726 679.531 37.2486 680.724 37.1849C683.215 37.0482 686.29 36.3427 688.752 35.9127C689.731 35.7386 688.941 35.191 689.078 35.1505C690.952 34.6411 692.976 34.9369 693.981 33.733C693.988 33.7318 694.009 33.7295 694.016 33.7287C694.09 33.6509 694.16 33.5658 694.227 33.4727C695.94 36.859 695.447 33.008 698.468 33.5756C698.706 33.6235 699.056 35.2703 698.186 35.5497C697.319 35.8296 695.956 35.3816 694.779 35.8619C694.695 35.8963 694.492 36.0791 694.256 36.3207L694.389 36.304C693.871 36.8864 693.164 37.7814 693.022 37.8718C691.409 38.89 690.732 36.4967 690.614 36.3778C689.301 35.1147 687.586 37.1427 687.088 37.3584C684.775 38.3454 682.662 38.4246 680.722 39.2166C679.449 39.7332 679.663 41.3497 678.61 41.5217C675.137 42.0924 673.457 40.1373 670.617 42.7615C670.012 43.3212 671.078 44.908 668.285 44.0831C668.104 44.0322 665.994 43.1812 665.079 44.206C664.968 44.3343 665.082 44.8393 664.915 44.9198C664.517 45.1081 664.145 45.2013 663.772 45.2647C663.574 45.3029 662.992 45.3754 662.79 45.3718C662.098 45.3445 661.445 45.2206 660.587 45.3496C659.275 45.5497 657.64 45.8434 656.128 45.6621C655.232 45.554 654.036 44.5822 653.598 44.3428C652.358 43.6539 651.049 44.7559 650.267 43.9226C649.502 43.0851 651.025 41.8475 649.012 41.2862C648.92 42.63 648.729 44.008 648.59 45.3587C644.128 45.2469 639.748 44.7046 635.279 44.5927C634.713 44.5795 635.263 45.3246 634.656 45.3287C632.14 45.3431 629.956 44.7244 627.343 44.7827C625.29 44.8284 623.053 45.4517 620.898 45.4857C619.735 43.8593 616.543 44.1275 614.276 43.7696C613.491 43.6465 613.582 43.242 613.023 43.0527C610.942 42.347 611.809 43.7993 611.194 43.952C608.59 44.596 608.688 41.5116 605.747 41.2411C605.591 41.2265 603.486 42.6218 603.211 42.6892C601.462 43.1404 603.006 42.0883 601.978 41.8354C600.106 41.3724 598.847 40.8097 596.572 40.9942C595.903 41.0496 594.234 41.8611 593.094 40.9183C592.944 40.7947 593.103 40.2682 592.975 40.2199C590.774 39.4347 590.423 40.9229 589.18 41.4277C589.115 41.4539 589.048 41.4775 588.977 41.498C587.551 41.9137 585.541 40.4966 585.157 40.1108C584.129 39.1087 586.065 39.8386 586.133 39.7598C586.965 38.8249 585.411 38.8225 584.232 38.5987C584.25 36.9187 582.582 36.8262 583.01 38.3735C583.055 38.5423 584.003 38.4953 584.232 38.5987C582.99 40.1053 581.162 40.1048 579.323 38.3486C578.467 37.5261 579.455 36.7984 576.556 36.7691C575.246 36.7555 575.613 37.9567 574.431 38.1344C571.731 38.5397 568.455 37.0738 565.738 36.9215C564.752 36.8663 565.631 37.605 564.954 37.5887C563.156 37.547 561.648 36.891 559.834 36.9166C559.67 36.9197 559.986 37.6218 559.43 37.5634C555.214 37.1323 551.604 36.2658 547.213 35.7034C545.082 35.4315 541.256 35.31 539.055 34.9485C535.258 34.331 530.696 32.7475 527.41 32.518C525.262 32.3649 525.653 33.0853 524.664 33.3974C522.776 34.0076 519.892 31.9986 519.51 31.6943C519.512 31.6872 521.339 31.8052 520.425 31.3252C519.975 30.5442 519.529 31.6942 519.51 31.6943C519.249 31.4999 515.608 30.7809 514.881 30.787C514.479 30.7915 514.596 31.4434 514.384 31.4333C509.356 31.1643 504.464 30.517 499.271 28.8992C499.182 28.8629 499.496 28.2229 499.289 28.1465C499.145 28.0926 499.006 28.0421 498.87 27.9947C496.34 27.1054 494.388 27.377 492.055 27.2011C489.601 27.0139 487.823 26.2998 486.817 24.7406C485.04 24.3598 482.73 23.0909 481.411 22.345C480.096 21.6007 479.493 22.8382 479.363 22.826C475.241 22.4555 473.265 21.0216 469.342 19.7894C467.479 19.1953 463.716 18.431 461.66 18.1374C460.033 17.8988 459.135 17.3902 457.612 17.3086C457.407 17.2979 457.497 17.9311 457.432 17.9426C455.655 18.3523 456.71 17.0424 456.415 16.7199C455.366 15.5865 454.666 14.9455 452.57 15.0381C452.508 15.0399 452.446 15.042 452.382 15.0446C451.827 15.0728 449.868 16.9145 448.835 16.8436C447.507 16.751 448.143 16.0973 446.777 16.0081C446.661 15.9992 446.586 16.4668 445.783 16.2757C442.057 15.3836 438.325 14.2346 434.668 13.6045C434.163 13.515 434.659 14.3676 433.949 14.2555C430.602 13.725 426.869 13.139 423.602 12.3917C422.809 12.2067 423.375 11.7477 423.219 11.5722C422.236 10.5059 420.506 11.694 420.26 11.6952C414.011 11.7126 409.437 10.1691 403.005 10.459C402.605 10.4738 399.982 11.8319 398.787 10.536C398.692 10.449 397.578 9.12473 396.514 9.9735C396.447 10.0267 397.163 10.7091 395.883 10.6052C394.565 10.5007 392.548 10.8953 390.768 10.1375C390.191 9.89834 388.905 8.59406 387.228 9.59807C387.132 9.6671 384.462 11.9548 383.602 10.3574C383.452 10.0947 383.631 8.40533 381.62 9.26577C381.234 9.43295 381.935 9.81024 380.916 10.0442C379.311 10.4051 377.385 9.95815 375.439 10.7239C375.088 10.8593 373.712 12.0157 372.59 11.1586C372.413 11.0243 372.741 10.4571 372.148 10.4007C369.262 10.131 366.387 10.556 363.426 10.2297C363.2 10.205 363.046 10.1427 362.933 10.058C362.527 9.74996 362.657 9.14589 361.806 8.97206C360.72 8.75095 358.543 8.5544 357.421 8.98695C356.298 9.4199 357.553 10.8541 355.862 10.9938C348.504 11.5978 341.249 10.7652 333.98 10.7147C332.902 10.7076 333.797 11.217 332.217 11.2449C326.357 11.3347 316.407 12.0678 311.437 11.3297C307.44 10.7276 312.354 9.69679 309.3 9.56129C307.825 9.5017 306.418 11.335 306.086 11.4237C302.791 12.3127 300.419 11.8934 297.699 12.7175C297.157 12.8891 297.847 13.4329 297.395 13.5717C296.656 13.8026 295.92 13.9619 295.245 14.1219C294.261 14.3714 293.225 14.6214 292.317 14.9372C291.519 15.2153 291.843 15.6613 291.095 15.8529C289.323 16.3115 287.709 16.5803 285.854 16.6327C285.685 16.6372 286.545 15.6968 285.242 16.0674C283.129 16.6697 280.372 16.9839 278.083 18.159C277.414 18.5066 277.69 19.6714 275.923 19.313C275.552 19.2377 275.572 17.7456 274.101 19.4406C273.85 19.7261 271.238 22.1737 269.444 21.5307C268.98 21.3605 267.67 20.492 266.841 20.8969C266.73 20.9559 267.364 21.4546 266.658 21.7016C264.15 22.5648 261.442 23.1658 258.842 23.9895C258.153 24.2091 259.353 24.6073 258.317 24.9142C255.454 25.7633 251.782 26.4099 248.887 26.8066C247.819 26.9517 248.433 26.2606 248.344 26.2182C246.909 25.5252 246.461 26.9569 246.064 27.1162C243.609 28.0839 241.554 27.8543 239.232 28.4539C238.594 28.6168 239.166 29.1474 239.048 29.2262C237.804 30.0105 238.601 28.7201 237.728 28.754C236.712 28.7911 235.676 28.8983 234.617 29.0485C233.125 29.2598 231.664 29.5519 230.316 29.8345C229.468 30.0132 230.564 30.5592 229.781 30.7149C225.175 31.6452 220.353 32.416 215.79 32.8054C214.925 32.8785 215.365 32.234 215.165 32.1391C213.803 31.4697 212.23 32.9811 211.829 33.1689C210.056 34.016 209.252 33.6542 207.607 34.0342C199.628 35.8894 189.614 37.2989 181.953 38.3812C173.243 39.6111 166.134 40.3253 158.063 41.3129C156.722 41.4747 155.466 41.5937 154.156 41.7221C153.549 41.7802 154.226 42.4713 153.697 42.5308C146.708 43.2573 139.956 43.2374 133.059 43.6259C132.487 43.6558 133.332 44.3414 132.41 44.4129C130.569 44.5632 128.2 44.566 126.301 44.3625C125.392 44.2644 126.604 43.6455 125.688 43.5589C123.53 43.3554 121.211 43.3168 119.03 43.4284C118.089 43.4772 119.51 44.2001 118.283 44.2068C109.973 44.2623 101.763 44.2058 93.43 42.9308C92.8538 42.8429 92.4061 41.3574 91.1849 41.5848C91.0753 41.9872 91.0589 42.4655 90.9995 42.8982C84.6046 42.7368 78.2463 42.2762 71.8973 41.69C66.306 41.1727 60.7066 40.6199 55.0699 40.1437C54.5654 40.1013 55.3798 40.9439 54.3987 40.8652C48.7317 40.4106 43.2124 40.1804 37.4721 38.9101C36.9015 38.7848 37.3191 37.4501 35.6051 37.5076C35.2972 37.519 32.7349 37.4744 32.0428 37.7089C31.9493 37.7454 32.3567 38.4228 31.5337 38.3668C26.7408 38.0287 21.713 37.3971 16.9709 36.4879C16.1934 36.3384 17.1016 35.7545 16.5504 35.6422C12.6782 34.8532 8.37645 34.8568 4.656 33.678C2.17483 32.878 3.30456 31.8619 2.1584 30.5008C2.01904 30.3149 0.446788 30.0047 0.500873 29.3268C0.622262 27.6289 1.68249 25.945 1.72488 24.1189C1.71178 23.7274 -0.216844 23.762 1.05495 23.0636C1.1411 23.0203 2.56775 22.9744 2.98379 22.7209C3.2644 22.5466 2.95606 21.7987 3.48098 21.6041C3.99236 21.4068 4.46737 22.0678 5.31853 21.8663C6.20554 21.6636 5.93117 20.8395 7.60749 20.9903ZM475.49 19.0186C474.373 17.9996 473.498 20.2356 475.066 20.1096C475.143 20.101 475.548 19.0696 475.49 19.0186ZM639.822 42.8812C638.084 41.7739 636.765 43.279 638.031 44.1376C639.266 44.9928 640.362 43.2168 639.822 42.8812ZM658.476 42.3733C656.358 41.5382 656.017 44.93 658.29 44.2481C658.423 44.2095 658.601 42.4217 658.476 42.3733ZM8.35333 31.0948C8.34713 31.0625 7.23152 30.8796 7.20207 30.9066C6.50395 31.5784 8.7261 31.9433 8.35333 31.0948ZM676.786 38.5241C676.057 38.2099 674.323 39.1238 675.24 39.511C675.968 39.8241 677.701 38.9129 676.786 38.5241ZM406.046 4.41155C406.028 4.37471 405.253 4.30298 405.258 4.5052C405.281 5.15592 406.364 5.02856 406.046 4.41155ZM707.587 34.7108C702.978 34.5918 700.106 31.8438 705.181 32.105C706.097 32.1557 703.214 33.0135 704.381 33.2571C706.511 33.7012 707.922 31.9427 710.093 32.8853C710.485 33.0578 707.85 34.7232 707.579 34.7147C707.582 34.7134 707.585 34.7121 707.587 34.7108ZM475.566 16.0398C475.55 16.0016 474.503 15.6579 474.469 15.681C473.684 16.2394 475.785 16.9295 475.566 16.0398ZM359.7 2.60005C359.638 2.53466 357.09 2.51296 357.007 2.57544C355.694 3.83904 360.855 3.88696 359.7 2.60005ZM548.148 29.1892C549.427 28.5794 550.869 28.6681 551.696 29.7373C550.523 29.5408 549.326 29.3842 548.148 29.1892Z" fill="#BBA575"/>
</svg>
