<svg width="583" height="25" viewBox="0 0 583 25" fill="none" xmlns="http://www.w3.org/2000/svg">
<path d="M6.06747 5.65157C9.26946 5.65492 13.4951 6.10156 16.7269 6.5635C17.7336 6.70701 17.1982 7.10581 17.8951 7.22368C19.2659 7.45368 20.5477 7.30406 21.8958 7.56064C22.3459 7.64785 21.7515 8.29388 22.2252 8.36997C24.7977 8.78079 27.2514 8.71236 29.8682 8.96097C39.8606 9.90935 49.749 10.5292 59.7883 11.1078C62.7138 11.276 65.6052 11.4291 68.5616 11.5757C72.8667 11.7903 78.0908 12.5067 82.5429 12.3017C83.0688 12.2774 82.7637 11.6834 82.8643 11.6362C84.4338 10.9135 83.8991 12.0966 84.9055 12.2672C88.915 12.9408 93.3859 13.024 97.2615 12.7991C98.9104 12.7012 97.2654 11.53 98.9093 12.1869C99.0228 12.2312 98.6114 12.8576 99.0565 12.9241C100.101 13.0739 102.017 12.9565 102.825 13.002C104.335 13.0935 104.621 13.0854 106.047 13.0819C108.042 13.0819 110.371 13.3678 112.496 13.1942C112.942 13.1553 112.33 12.5227 113.063 12.4023C113.789 12.2826 115.706 12.3032 116.333 12.4416C116.985 12.5801 116.721 13.0899 116.838 13.2032C117.807 14.1607 119.952 12.7583 120.26 12.7162C123.378 12.2873 126.313 12.3518 129.088 12.3742C130.929 12.3776 132.767 12.382 134.656 12.257C138.351 12.0113 142.255 11.4675 145.776 11.2344C149.971 10.9585 153.537 11.0265 157.608 10.6446C158.044 10.6044 157.471 9.89278 158.006 9.84204C163.55 9.31461 169.122 8.95114 174.7 9.01583C175.254 9.02336 174.597 9.74067 175.155 9.7876C178.598 10.0583 184.144 10.9262 185.888 7.89254C187.701 7.83354 189.675 7.76391 191.546 7.91042C192.111 7.95722 192.648 8.0255 193.145 8.12283C194.494 8.38636 193.273 9.21297 194.878 8.76874C195.239 8.66918 194.709 8.07991 195.253 7.97819C197.552 7.54969 200.101 7.52442 202.358 6.97904C202.819 6.8665 202.636 6.31497 202.759 6.20071C203.778 5.27281 205.755 6.44673 206.175 6.50326C209.314 6.92631 211.523 6.39392 214.371 6.08871C215.031 6.018 214.162 5.35156 214.799 5.25544C218.09 4.76864 221.499 4.41789 224.774 4.33498C225.499 4.31879 224.925 5.04652 225.275 5.07169C226.831 5.17211 227.006 3.91412 228.487 3.98287C228.802 3.99519 228.702 4.56837 228.767 4.6212C229.763 5.4523 230.349 4.00435 230.564 3.94469C233.348 3.14998 235.359 4.29277 238.079 3.6993C238.403 3.62692 237.567 3.03813 238.479 2.87799C239.107 2.76752 239.738 2.66058 240.358 2.55935C246.229 1.65674 252.147 1.71014 257.737 2.05813C258.695 2.12168 258.025 2.66513 258.087 2.72866C259.093 3.72104 259.706 2.34795 260.015 2.29053C262.483 1.87313 264.808 2.98639 266.467 1.34811C276.937 1.8075 287.309 0.933429 297.653 2.28146C297.785 2.29698 297.556 2.96957 297.818 2.99763C297.858 3.00195 297.897 3.00605 297.936 3.00994C301.026 3.31676 300.431 2.2914 302.462 1.01744C302.966 0.693557 304.634 2.22127 304.767 2.33347C305.288 2.74602 304.755 3.74624 304.93 3.82573C306.37 4.44997 306.089 1.15298 308.033 1.14461C308.094 1.14989 307.837 1.75779 308.003 1.81756C308.519 2.00527 309.024 1.76262 309.519 1.97043C310.664 2.45163 311.003 4.05299 312.766 3.12045C312.984 2.9997 312.66 1.128 314.389 1.21874C315.049 1.25554 318.143 1.23454 318.977 1.36198C319.816 1.48821 319.235 2.08747 319.295 2.11393C321.573 2.92654 320.728 3.25146 321.864 4.44105C322.998 5.62721 322.705 2.82048 323.171 2.51213C323.603 2.20402 325.351 2.8824 325.744 3.11678C326.152 3.35102 325.635 3.72712 325.998 3.86148C328.373 4.74131 327.079 2.48515 327.892 2.05241C329.826 1.0297 331.259 3.13786 332.978 3.38125C333.438 3.44703 333.074 2.96471 333.483 2.93012C335.189 2.80264 336.088 3.47552 338.04 2.94121C338.349 2.8536 339.909 1.65409 340.874 2.6088C341.008 2.74622 340.596 3.24923 341.29 3.39161C342.33 3.60482 344.196 3.79688 345.375 3.68034C346.215 3.59248 345.306 2.69328 346.333 3.00931C346.786 3.15063 345.906 3.60649 346.767 3.83103C347.656 4.05562 349.889 4.15987 350.717 4.19603C351.58 4.23261 351.15 3.55666 351.222 3.51742C351.669 3.29423 353.297 3.09157 353.457 3.10461C360.019 3.46202 365.996 5.14245 372.199 5.4947C372.915 5.53204 373.621 5.55993 374.34 5.57742C374.895 5.59195 374.579 4.88302 374.664 4.87821C376.601 4.74367 374.946 6.43317 376.224 7.14833C376.149 5.75163 376.912 6.06434 378.262 6.03766C378.917 6.0247 378.615 5.45723 378.679 5.40807C379.715 4.68792 380.285 5.80605 380.43 6.0375C380.983 6.89114 381.767 6.03472 382.141 6.60932C382.511 7.17978 381.441 7.84322 382.714 7.97712C383.13 7.52532 382.325 6.12785 383.323 6.03108C387.103 5.65225 393.786 7.63105 396.683 8.15189C399.59 8.67176 400.539 8.71212 402.216 9.12555C405.235 9.86727 404.249 8.76076 406.206 8.57913C408.168 8.3947 406.935 10.6188 407.143 11.1596C407.35 11.6997 407.715 11.2194 408.011 11.5397C408.31 11.8603 407.54 12.1095 408.315 12.3156C408.79 12.4405 409.78 12.2637 410.598 11.9977C411.105 11.816 411.568 11.5949 411.709 11.397C412.434 10.3425 411.568 9.06383 413.604 9.69533C413.718 9.73174 413.275 10.3124 413.718 10.4205C417.322 11.2618 421.123 11.584 424.762 12.2745C425.268 12.3705 424.761 13.028 425.056 13.0918C428.069 13.7505 427.078 12.5088 428.83 11.33C428.334 13.0256 429.196 14.1449 431.518 14.3088C432.917 14.4075 432.716 13.6388 433.658 13.1675C433.944 13.0256 434.896 13.6052 435.095 13.2626C435.758 12.1434 434.908 10.7906 437.272 11.4568C437.375 11.4878 437.003 12.1001 437.361 12.161C439.691 12.5578 440.041 11.365 442.587 11.3716C444.586 11.3769 448.064 12.3215 450.326 12.5715C450.163 14.5059 452.336 14.1853 453.273 12.8983C454.739 13.0363 456.328 13.0497 457.74 13.3136C458.225 13.4037 457.873 13.9468 457.931 14.0108C458.822 15.0141 459.533 13.7499 459.853 13.7165C463.317 13.4111 466.065 14.5485 469.397 13.7628C469.515 13.7344 469.777 12.3987 470.6 13.4286C470.653 13.4993 469.539 14.0535 471.076 14.1837C472.622 14.3145 475.488 15.1914 477.667 14.682C478.195 14.5596 479.558 13.5364 480.571 14.4464C480.705 14.5698 480.531 14.9477 480.722 15.1732C481.34 15.8925 481.762 14.5506 482.477 15.7477C482.843 16.3638 483.433 16.9146 484.211 17.2106C484.951 17.49 485.863 17.5451 486.932 17.2191C487.001 17.1999 487.577 16.1517 488.254 16.209C489.34 16.3017 490.861 16.6198 491.994 16.6813C492.536 16.7102 492.229 16.02 492.324 16.0135C495.988 15.8574 498.546 16.6055 502.441 17.0508C503.143 17.1336 505.255 16.313 506.601 17.0892C508.106 17.9387 506.394 21.1726 509.945 20.5138C511.404 20.2492 513.28 16.1311 515.769 18.3588C520.723 17.9469 525.269 19.1233 530.196 18.4015C530.417 18.3695 531.129 17.2099 531.66 17.2297C532.442 17.2612 532.843 17.8084 533.4 17.8476C535.74 18.0254 537.843 17.5654 540.081 17.6396C540.939 17.6664 540.649 18.2296 541.646 18.2609C542.494 18.2867 543.11 17.7586 544.13 17.8113L544.112 17.8122C544.296 17.8039 544.494 17.8135 544.709 17.8474C545.759 18.0176 546.95 19.4228 548.332 19.4631C548.237 17.9698 549.177 17.9073 550.807 17.349C551.121 17.2409 550.723 16.7573 550.87 16.6793C551.468 16.3505 552.081 16.7233 552.636 16.375C552.769 16.2914 552.727 15.7824 552.837 15.685C553.753 14.8386 555.503 15.8212 555.806 15.9927C556.954 16.6438 557.395 15.9338 558.249 16.1521C559.101 16.3709 557.908 16.8608 558.884 16.9497C560.917 17.1319 563.469 16.8127 565.497 16.6649C566.306 16.6029 565.698 15.9702 565.812 15.9455C567.311 15.6626 568.88 16.1197 569.783 15.1668C569.785 15.1665 569.793 15.1662 569.796 15.166C569.896 15.0663 569.99 14.9499 570.076 14.8142C571.369 18.2815 571.078 14.4282 573.513 15.082C573.704 15.1356 573.97 16.7911 573.254 17.048C572.539 17.305 571.433 16.812 570.451 17.2293C570.369 17.2639 570.153 17.4881 569.906 17.7685L569.972 17.7648C569.528 18.2895 568.974 19.0033 568.86 19.0732C567.477 19.9183 567.073 17.4642 566.984 17.3342C565.994 15.9382 564.47 17.7518 564.048 17.906C562.096 18.6115 560.37 18.4241 558.734 18.9614C557.661 19.3105 557.716 20.9382 556.848 20.9726C553.979 21.0876 552.762 18.9305 550.257 21.1543C549.726 21.6283 550.471 23.3394 548.263 22.1549C548.124 22.0803 546.469 20.9606 545.652 21.8539C545.552 21.9662 545.607 22.481 545.465 22.5388C545.16 22.6597 544.878 22.7067 544.599 22.7249C544.507 22.7315 544.232 22.7504 544.14 22.7481C543.544 22.7292 542.996 22.5828 542.263 22.7176C541.2 22.916 539.869 23.2101 538.644 23.0324C537.918 22.9262 536.943 21.9589 536.588 21.7216C535.579 21.0381 534.52 22.1484 533.882 21.3211C533.257 20.4896 534.49 19.2397 532.851 18.6949C532.782 20.0395 532.634 21.419 532.528 22.771C528.908 22.6996 525.352 22.2249 521.727 22.2209C521.277 22.2217 521.727 22.9529 521.236 22.9721C519.189 23.0496 517.43 22.4964 515.303 22.6471C513.649 22.7662 511.844 23.4792 510.112 23.6139C509.139 22.0423 506.55 22.4707 504.713 22.2499C504.067 22.1735 504.144 21.7653 503.678 21.6104C501.96 21.036 502.721 22.4316 502.233 22.6234C500.138 23.4373 500.12 20.3548 497.719 20.3018C497.587 20.298 495.948 21.8498 495.724 21.9389C494.334 22.5263 495.535 21.3561 494.688 21.1855C493.152 20.8737 492.097 20.4169 490.257 20.7868C489.719 20.8969 488.392 21.841 487.419 20.9913C487.291 20.8799 487.397 20.3429 487.29 20.3048C485.363 19.6622 485.216 21.3622 484.073 21.8782C484.036 21.8951 483.998 21.91 483.96 21.9232C482.827 22.3139 481.226 21.1155 480.912 20.7703C480.038 19.8454 481.634 20.4333 481.693 20.3503C482.337 19.3587 481.062 19.4675 480.099 19.3296C480.049 17.6535 478.68 17.6811 479.095 19.193C479.143 19.3583 479.909 19.243 480.099 19.3296C479.154 20.9211 477.666 21.0522 476.096 19.4342C475.366 18.6761 476.143 17.8793 473.781 18.0597C472.717 18.1412 473.064 19.312 472.111 19.575C469.93 20.1749 467.21 18.9533 464.993 19.0019C464.189 19.0196 464.934 19.691 464.384 19.7248C462.921 19.8162 461.667 19.2742 460.194 19.4354C460.061 19.4508 460.347 20.1269 459.893 20.1102C456.45 19.9966 453.477 19.4071 449.885 19.1889C448.146 19.0839 445.025 19.2657 443.228 19.0848C440.118 18.7767 436.338 17.5825 433.662 17.6429C431.905 17.6786 432.256 18.3618 431.481 18.7613C429.972 19.5355 427.529 17.8048 427.215 17.5403C427.202 17.5316 428.703 17.479 427.93 17.0866C427.517 16.3512 427.232 17.5384 427.215 17.5403C426.991 17.3694 424.009 17.0074 423.409 17.088C423.085 17.1331 423.217 17.7693 423.049 17.7811C418.962 18.0327 415.004 17.8921 410.782 17.1194C410.707 17.098 410.902 16.4172 410.727 16.3756C410.493 16.3178 410.274 16.2718 410.066 16.236C408.094 15.8966 406.602 16.4507 404.797 16.6728C402.796 16.9174 401.294 16.5378 400.317 15.1906C398.842 15.1379 396.841 14.3183 395.693 13.8298C394.549 13.3419 394.189 14.6649 394.082 14.6769C390.697 15.067 388.934 14.0273 385.603 13.4767C384.019 13.21 380.854 13.0395 379.132 13.0207C377.77 13.0049 376.981 12.6123 375.719 12.7095C375.548 12.7224 375.668 13.3404 375.614 13.3593C374.169 13.9671 374.955 12.5468 374.689 12.2598C373.825 11.336 373.249 10.7909 371.844 10.9129C371.655 10.9278 371.454 10.9529 371.237 10.9885C370.799 11.063 369.346 13.088 368.532 13.1394C367.483 13.2036 367.941 12.4784 366.853 12.5606C366.761 12.5667 366.736 13.0385 366.076 12.9527C363.035 12.5581 359.891 11.952 356.822 11.7437C356.411 11.7138 356.877 12.5032 356.279 12.4724C353.441 12.3254 350.369 12.093 347.62 11.5937C346.947 11.4687 347.4 10.9689 347.261 10.8057C346.371 9.81565 345.05 11.1205 344.824 11.1363C339.7 11.5583 335.868 10.2072 330.601 10.6872C330.309 10.7153 328.147 12.141 327.144 10.8699C327.079 10.7853 326.159 9.48558 325.288 10.3536C325.233 10.4079 325.831 11.0773 324.774 10.9966C323.674 10.9156 322.062 11.3408 320.58 10.6025C320.091 10.3697 319.071 9.07965 317.687 10.0954C317.599 10.1659 315.449 12.4693 314.729 10.8737C314.605 10.6111 314.749 8.92267 313.101 9.7866C312.784 9.95422 313.36 10.3308 312.524 10.5657C311.24 10.9278 309.639 10.478 308.047 11.2354C307.752 11.3695 306.649 12.5192 305.724 11.6545C305.58 11.5191 305.851 10.9542 305.365 10.8937C302.996 10.604 300.665 10.9991 298.239 10.6334C298.151 10.6201 298.076 10.5985 298.012 10.5701C297.466 10.3231 297.723 9.56556 296.935 9.35407C296.056 9.11846 294.291 8.89777 293.378 9.32004C292.464 9.74257 293.475 11.1879 292.102 11.3127C286.131 11.8539 280.234 11.0096 274.306 10.9127C273.426 10.8984 274.155 11.4141 272.866 11.4307C268.09 11.4885 259.921 12.067 255.821 11.0995C252.538 10.3203 256.612 9.51369 254.105 9.23711C252.889 9.10718 251.656 10.8509 251.383 10.9171C248.589 11.5901 246.64 10.9628 244.224 11.4278C243.737 11.5252 244.285 12.1565 243.878 12.232C243.172 12.3663 242.45 12.4067 241.783 12.4478C241.007 12.5044 240.2 12.5581 239.475 12.6907C238.804 12.8141 239.013 13.312 238.391 13.3605C236.909 13.4816 235.578 13.4487 234.074 13.1641C233.938 13.1381 234.729 12.3715 233.636 12.4994C231.865 12.7085 229.614 12.5273 227.649 13.2885C227.07 13.5157 227.189 14.7052 225.793 14.054C225.5 13.9178 225.655 12.4533 224.31 13.8733C224.072 14.112 221.752 16.0867 220.364 15.1683C220.007 14.926 219.011 13.864 218.318 14.1315C218.223 14.1724 218.693 14.7628 218.099 14.8959C216 15.3541 213.765 15.5383 211.601 15.9745C211.024 16.0921 211.965 16.6582 211.1 16.8123C208.724 17.2372 205.712 17.3735 203.35 17.3909C202.474 17.3966 203.022 16.7918 202.953 16.7383C201.852 15.8658 201.382 17.2286 201.049 17.3364C199.01 17.9857 197.353 17.5125 195.451 17.8377C194.922 17.9258 195.352 18.5181 195.251 18.5827C194.195 19.2188 194.917 18.0297 194.216 17.9635C193.611 17.905 192.984 17.8857 192.346 17.8939C190.9 17.9133 189.488 18.0676 188.152 18.2302C187.426 18.3187 188.301 18.9772 187.651 19.0481C183.902 19.4739 179.893 19.7253 176.163 19.6223C175.463 19.6014 175.855 19.009 175.7 18.8932C174.665 18.0796 173.236 19.4168 172.923 19.5583C171.471 20.2064 170.767 19.7665 169.447 19.9646C162.846 20.953 154.63 21.2804 148.332 21.5616C141.505 21.8675 135.879 21.8731 129.651 22.1803C128.358 22.243 127.06 22.298 125.751 22.3686C125.232 22.3951 125.77 23.1205 125.341 23.1521C119.751 23.5217 114.245 23.3297 108.678 23.6043C108.228 23.6253 108.885 24.3239 108.161 24.3811C106.658 24.5035 104.735 24.4791 103.223 24.261C102.482 24.1559 103.474 23.5462 102.726 23.4527C100.971 23.2335 99.1183 23.1865 97.3338 23.2981C96.5665 23.347 97.725 24.0696 96.7251 24.0768C90.0008 24.1387 83.3783 24.1936 76.5967 23.13C76.1231 23.0567 75.7553 21.5835 74.7614 21.8442C74.6785 22.2494 74.6726 22.7279 74.631 23.162C69.535 23.1778 64.4653 22.9601 59.3971 22.6737C54.7504 22.4104 50.0961 22.1133 45.4152 21.908C45.0021 21.8901 45.6883 22.692 44.8886 22.6611C40.272 22.4838 35.7831 22.5323 31.0831 21.5733C30.6159 21.4791 30.9163 20.1237 29.5239 20.2746C29.2751 20.3025 27.1916 20.3999 26.6385 20.6736C26.5638 20.7152 26.9156 21.3683 26.2465 21.359C22.3449 21.2931 18.2492 20.9657 14.3766 20.3816C13.7417 20.2855 14.4545 19.6412 14.004 19.5669C10.8374 19.0458 7.36108 19.3713 4.31474 18.5445C2.28147 17.9854 3.13596 16.868 2.13341 15.6328C2.00995 15.4608 0.725648 15.3285 0.725591 14.6521C0.710278 12.9535 1.46494 11.1605 1.3783 9.34395C1.34387 8.95367 -0.268022 9.2232 0.744173 8.3756C0.814554 8.3204 2.00224 8.11138 2.33204 7.81733C2.55462 7.61447 2.24955 6.90403 2.67409 6.65536C3.08968 6.40597 3.52483 7.01441 4.21914 6.73258C4.94364 6.44783 4.66962 5.65057 6.06747 5.65157ZM390.54 11.6497C389.53 10.8508 389.045 13.1995 390.307 12.7956C390.369 12.7733 390.592 11.6893 390.54 11.6497ZM525.394 20.4131C523.966 19.3383 522.918 20.8731 523.956 21.7043C524.961 22.5337 525.837 20.7389 525.394 20.4131ZM540.547 19.7404C538.826 18.9071 538.553 22.2997 540.397 21.6153C540.505 21.5766 540.649 19.7888 540.547 19.7404ZM7.17395 15.6489C7.16716 15.6169 6.25526 15.5289 6.23234 15.5588C5.69985 16.2869 7.51487 16.4619 7.17395 15.6489ZM555.585 17.7687C555.017 17.363 553.539 18.0409 554.255 18.5439C554.823 18.9492 556.301 18.2723 555.585 17.7687ZM332.997 4.54997C332.982 4.51387 332.344 4.46724 332.351 4.66908C332.383 5.31894 333.271 5.15617 332.997 4.54997ZM580.928 16.3061C577.171 16.1816 574.857 13.3988 578.975 13.6949C579.719 13.7497 577.375 14.5941 578.322 14.8435C580.054 15.2979 581.202 13.5385 582.968 14.4814C583.287 14.6539 581.143 16.3192 580.922 16.31C580.924 16.3087 580.926 16.3074 580.928 16.3061ZM390.299 8.71519C390.283 8.68088 389.397 8.52959 389.373 8.55813C388.791 9.24539 390.567 9.54932 390.299 8.71519ZM295.268 2.95717C295.217 2.89049 293.143 2.84271 293.075 2.90497C292 4.15509 296.199 4.25553 295.268 2.95717ZM450.358 12.6252C451.373 11.9181 452.55 11.8951 453.269 12.897C452.308 12.7915 451.325 12.7279 450.358 12.6252Z" fill="#BBA575"/>
</svg>
