<svg width="28" height="30" viewBox="0 0 28 30" fill="none" xmlns="http://www.w3.org/2000/svg">
<path d="M22.2143 4.78876C20.9939 3.51246 20.3212 1.87369 20.3214 0.177246H14.8036V20.4548C14.7619 21.5524 14.2563 22.5923 13.3934 23.355C12.5305 24.1178 11.3779 24.5437 10.1786 24.5431C7.64286 24.5431 5.53572 22.6461 5.53572 20.2913C5.53572 17.4786 8.5 15.3691 11.5536 16.2358V11.0683C5.39286 10.316 0 14.6986 0 20.2913C0 25.7368 4.92857 29.6125 10.1607 29.6125C15.7679 29.6125 20.3214 25.4425 20.3214 20.2913V10.0053C22.5589 11.4769 25.2453 12.2664 28 12.262V7.20899C28 7.20899 24.6429 7.35617 22.2143 4.78876Z" fill="white"/>
</svg>
