<svg width="48" height="48" viewBox="0 0 48 48" fill="none" xmlns="http://www.w3.org/2000/svg">
<path d="M47.26 9.33333C46.336 7.74533 44.636 6.66666 42.6667 6.66666H24V9.33333H47.26ZM0 33.3333H48V36H0V33.3333ZM24 22.6667H48V25.3333H24V22.6667ZM24 17.3333H48V20H24V17.3333ZM0 28H48V30.6667H0V28ZM5.33333 41.3333H42.6667C44.636 41.3333 46.336 40.2547 47.26 38.6667H0.74C1.664 40.2547 3.364 41.3333 5.33333 41.3333ZM24 12H48V14.6667H24V12Z" fill="#B22334"/>
<path d="M0.0906667 36.9053C0.112889 37.0298 0.139111 37.1529 0.169333 37.2747C0.204889 37.408 0.245778 37.5396 0.292 37.6693C0.410667 38.0147 0.554667 38.348 0.736 38.66L0.74 38.6667H47.26L47.2627 38.6613C47.4434 38.3479 47.5917 38.0168 47.7053 37.6733C47.7919 37.4227 47.8596 37.166 47.908 36.9053C47.9627 36.612 48 36.3107 48 36H0C0 36.3107 0.0373333 36.6107 0.0906667 36.9053ZM0 30.6667H48V33.3333H0V30.6667ZM0 25.3333V28H48V25.3333H24H0ZM24 20H48V22.6667H24V20ZM24 14.6667H48V17.3333H24V14.6667ZM0.170667 10.7253C0.204 10.5893 0.250667 10.46 0.293333 10.3293C0.247328 10.4597 0.206408 10.5918 0.170667 10.7253ZM24 12H48C48 11.6893 47.9627 11.388 47.908 11.0933C47.8613 10.8321 47.7931 10.5753 47.704 10.3253C47.5902 9.98041 47.4414 9.64802 47.26 9.33334H24V12Z" fill="#EEEEEE"/>
<path d="M24 6.66666H5.33333C3.91885 6.66666 2.56229 7.22857 1.5621 8.22876C0.561903 9.22895 0 10.5855 0 12L0 25.3333H24V6.66666Z" fill="#3C3B6E"/>
<path d="M2.66797 10.3013L3.49197 10.9L3.1773 11.8667L3.99997 11.2693L4.82397 11.8667L4.5093 10.9L5.3333 10.3013H4.31464L3.99997 9.33334L3.68664 10.3013H2.66797ZM5.33464 12.968L6.15864 13.5667L5.84397 14.5333L6.66664 13.936L7.49064 14.5333L7.17597 13.5667L7.99997 12.968H6.9813L6.66664 12L6.3533 12.968H5.33464ZM10.668 12.968L11.492 13.5667L11.1773 14.5333L12 13.936L12.824 14.5333L12.5093 13.5667L13.3333 12.968H12.3146L12 12L11.6866 12.968H10.668ZM16.0013 12.968L16.8253 13.5667L16.5106 14.5333L17.3333 13.936L18.1573 14.5333L17.8426 13.5667L18.6666 12.968H17.648L17.3333 12L17.02 12.968H16.0013ZM5.33464 18.3013L6.15864 18.9L5.84397 19.8667L6.66664 19.2693L7.49064 19.8667L7.17597 18.9L7.99997 18.3013H6.9813L6.66664 17.3333L6.3533 18.3013H5.33464ZM10.668 18.3013L11.492 18.9L11.1773 19.8667L12 19.2693L12.824 19.8667L12.5093 18.9L13.3333 18.3013H12.3146L12 17.3333L11.6866 18.3013H10.668ZM16.0013 18.3013L16.8253 18.9L16.5106 19.8667L17.3333 19.2693L18.1573 19.8667L17.8426 18.9L18.6666 18.3013H17.648L17.3333 17.3333L17.02 18.3013H16.0013ZM8.0013 10.3013L8.8253 10.9L8.51064 11.8667L9.3333 11.2693L10.1573 11.8667L9.84264 10.9L10.6666 10.3013H9.64797L9.3333 9.33334L9.01997 10.3013H8.0013ZM13.3346 10.3013L14.1586 10.9L13.844 11.8667L14.6666 11.2693L15.4906 11.8667L15.176 10.9L16 10.3013H14.9813L14.6666 9.33334L14.3533 10.3013H13.3346ZM18.668 10.3013L19.492 10.9L19.1773 11.8667L20 11.2693L20.824 11.8667L20.5093 10.9L21.3333 10.3013H20.3146L20 9.33334L19.6866 10.3013H18.668ZM2.66797 15.6347L3.49197 16.2333L3.1773 17.2L3.99997 16.6027L4.82397 17.2L4.5093 16.2333L5.3333 15.6347H4.31464L3.99997 14.6667L3.68664 15.6347H2.66797ZM8.51064 17.2L9.3333 16.6027L10.1573 17.2L9.84264 16.2333L10.6666 15.6347H9.64797L9.3333 14.6667L9.01997 15.6347H8.0013L8.8253 16.2333L8.51064 17.2ZM13.3346 15.6347L14.1586 16.2333L13.844 17.2L14.6666 16.6027L15.4906 17.2L15.176 16.2333L16 15.6347H14.9813L14.6666 14.6667L14.3533 15.6347H13.3346ZM18.668 15.6347L19.492 16.2333L19.1773 17.2L20 16.6027L20.824 17.2L20.5093 16.2333L21.3333 15.6347H20.3146L20 14.6667L19.6866 15.6347H18.668ZM2.66797 20.968L3.49197 21.5667L3.1773 22.5333L3.99997 21.936L4.82397 22.5333L4.5093 21.5667L5.3333 20.968H4.31464L3.99997 20L3.68664 20.968H2.66797ZM8.51064 22.5333L9.3333 21.936L10.1573 22.5333L9.84264 21.5667L10.6666 20.968H9.64797L9.3333 20L9.01997 20.968H8.0013L8.8253 21.5667L8.51064 22.5333ZM13.3346 20.968L14.1586 21.5667L13.844 22.5333L14.6666 21.936L15.4906 22.5333L15.176 21.5667L16 20.968H14.9813L14.6666 20L14.3533 20.968H13.3346ZM18.668 20.968L19.492 21.5667L19.1773 22.5333L20 21.936L20.824 22.5333L20.5093 21.5667L21.3333 20.968H20.3146L20 20L19.6866 20.968H18.668Z" fill="white"/>
</svg>
